<?xml version="1.0" standalone="no"?>
<!DOCTYPE svg PUBLIC "-//W3C//DTD SVG 20010904//EN"
 "http://www.w3.org/TR/2001/REC-SVG-20010904/DTD/svg10.dtd">
<svg version="1.0" xmlns="http://www.w3.org/2000/svg"
 width="1622.000000pt" height="1622.000000pt" viewBox="0 0 1622.000000 1622.000000"
 preserveAspectRatio="xMidYMid meet">
<metadata>
Created by potrace 1.14, written by Peter Selinger 2001-2017
</metadata>
<g transform="translate(0.000000,1622.000000) scale(0.100000,-0.100000)"
fill="#000000" stroke="none">
<path d="M8014 16182 c4 -7 2 -12 -4 -12 -7 0 -10 -7 -6 -17 5 -16 5 -16 -8 0
-12 16 -18 17 -36 7 -15 -8 -20 -8 -16 -1 9 14 0 14 -26 0 -17 -9 -20 -9 -15
4 4 11 0 13 -15 9 -12 -3 -15 -7 -8 -12 6 -4 -3 -7 -19 -7 -17 0 -28 5 -24 10
4 6 1 7 -8 2 -19 -12 -49 -14 -55 -3 -3 5 -12 4 -19 -2 -10 -8 -16 -7 -24 7
-6 11 -11 13 -11 5 0 -8 -6 -12 -12 -9 -7 2 -21 0 -30 -5 -10 -5 -18 -5 -18 0
0 10 -30 9 -48 -2 -7 -4 -20 -2 -29 6 -14 11 -16 11 -8 -1 6 -11 4 -13 -8 -8
-10 4 -17 2 -17 -5 0 -6 -6 -5 -17 3 -11 10 -14 10 -9 2 4 -7 2 -13 -3 -13 -6
0 -11 5 -11 12 0 6 -7 3 -15 -8 -15 -19 -15 -19 -8 1 6 17 4 18 -9 8 -8 -7
-18 -10 -21 -6 -4 3 -13 0 -22 -7 -11 -10 -18 -10 -29 -1 -11 10 -18 7 -31
-11 -12 -15 -15 -17 -12 -5 4 9 2 17 -3 17 -6 0 -10 -4 -10 -8 0 -10 -36 -9
-46 0 -12 12 -33 -4 -27 -20 4 -13 1 -12 -10 3 -15 20 -16 20 -26 -5 -9 -23
-10 -23 -10 -3 -1 16 -6 20 -21 16 -11 -3 -17 -10 -13 -17 4 -6 -1 -5 -10 3
-15 12 -17 11 -18 -5 0 -18 -1 -18 -9 1 -5 11 -9 15 -9 8 -1 -6 -14 -10 -31
-9 -16 1 -30 -3 -30 -8 0 -6 -5 -4 -10 4 -6 9 -10 11 -10 3 0 -7 -7 -10 -17
-6 -10 4 -14 2 -10 -4 7 -11 -34 -9 -54 3 -8 4 -9 3 -5 -4 4 -7 4 -12 -1 -13
-4 0 -16 -2 -26 -4 -9 -2 -15 0 -12 5 3 4 -4 6 -15 3 -11 -3 -18 -9 -15 -13 3
-5 0 -12 -6 -16 -7 -4 -9 -3 -5 4 3 6 2 13 -4 17 -5 3 -10 1 -10 -6 0 -8 -4
-9 -13 -1 -10 9 -19 7 -35 -4 -17 -12 -22 -12 -22 -2 0 8 -3 9 -8 3 -11 -15
-56 -19 -47 -4 5 8 4 10 -3 5 -7 -4 -12 -15 -13 -24 0 -14 -2 -13 -9 3 -5 11
-9 15 -9 9 -1 -7 -8 -15 -17 -18 -8 -3 -13 -2 -10 2 3 5 -1 9 -9 9 -8 0 -12
-4 -10 -8 3 -4 -2 -10 -11 -13 -8 -3 -12 -2 -9 3 3 5 1 12 -5 16 -5 3 -10 -1
-10 -9 0 -18 -8 -20 -30 -7 -8 6 -19 7 -25 3 -10 -7 -16 -8 -36 -11 -5 0 -7
-7 -3 -13 6 -10 4 -10 -8 0 -13 10 -17 10 -22 -4 -4 -11 -11 -13 -19 -7 -6 4
-19 8 -27 7 -8 -1 -21 -2 -28 -3 -7 0 -11 -5 -7 -10 3 -5 0 -13 -6 -17 -7 -4
-9 -3 -5 4 10 17 -18 20 -32 3 -8 -9 -10 -10 -6 -2 5 10 1 11 -17 6 -13 -4
-26 -12 -27 -17 -2 -5 -11 -3 -20 4 -9 8 -13 8 -9 2 4 -7 0 -15 -9 -18 -10 -4
-13 -2 -8 6 5 8 2 9 -12 3 -10 -4 -27 -8 -36 -9 -9 0 -15 -3 -12 -7 2 -4 -3
-10 -12 -13 -24 -9 -31 -7 -14 4 9 6 10 10 3 10 -6 0 -15 -5 -18 -11 -4 -6
-13 -8 -21 -5 -9 3 -14 -1 -15 -12 0 -11 -2 -12 -6 -4 -4 10 -8 10 -19 1 -11
-9 -14 -9 -14 0 0 7 -5 9 -10 6 -6 -4 -8 -10 -5 -15 3 -5 0 -12 -6 -16 -7 -4
-9 -3 -6 3 4 6 0 14 -8 17 -9 3 -18 -1 -22 -9 -5 -13 -7 -13 -19 2 -12 15 -13
15 -8 2 3 -10 0 -20 -7 -25 -8 -5 -10 -3 -4 7 8 12 6 12 -8 0 -9 -7 -26 -11
-37 -8 -13 3 -28 -2 -42 -16 -20 -21 -21 -21 -14 -2 6 18 5 19 -7 3 -8 -10
-17 -15 -21 -11 -4 4 -11 1 -16 -7 -7 -11 -10 -12 -10 -2 0 10 -4 10 -16 -2
-8 -9 -21 -16 -27 -16 -7 0 -6 5 3 11 12 9 12 10 -3 5 -10 -3 -21 -6 -23 -6
-3 0 -2 -6 2 -12 5 -8 0 -7 -11 2 -17 14 -18 13 -12 -2 7 -19 -12 -21 -25 -3
-5 6 -8 5 -8 -2 0 -7 -8 -13 -18 -13 -10 0 -24 -6 -31 -12 -11 -10 -12 -10 -7
-1 5 9 2 11 -8 7 -9 -3 -14 -10 -11 -14 3 -5 -5 -6 -17 -2 -13 3 -19 1 -15 -5
4 -6 -4 -9 -18 -7 -18 1 -25 -3 -25 -14 0 -10 -3 -13 -8 -7 -10 14 -35 18 -27
4 5 -7 -3 -9 -24 -6 -18 3 -29 1 -25 -4 3 -5 11 -6 17 -3 7 4 8 3 4 -1 -11
-13 -37 -15 -37 -4 0 6 -6 4 -14 -3 -8 -7 -12 -16 -10 -19 2 -3 -3 -6 -11 -6
-8 0 -11 5 -8 10 4 7 -1 7 -13 2 -10 -4 -29 -10 -41 -12 -13 -3 -20 -10 -16
-16 4 -6 0 -8 -11 -4 -10 4 -15 3 -11 -3 3 -6 -1 -10 -10 -10 -10 0 -13 5 -9
13 4 6 -2 3 -14 -7 -26 -23 -30 -34 -4 -15 15 13 16 12 3 -4 -11 -14 -17 -15
-28 -5 -12 10 -18 9 -29 -7 -10 -14 -14 -15 -14 -4 0 9 -3 10 -8 3 -7 -11 -60
-29 -76 -25 -5 1 -3 -6 5 -15 13 -16 12 -16 -8 -5 -17 9 -23 9 -23 0 0 -6 -7
-8 -16 -5 -8 3 -12 2 -9 -4 3 -6 3 -10 -2 -11 -4 -1 -21 -2 -36 -4 -16 -1 -33
-8 -37 -15 -4 -7 -13 -9 -19 -6 -6 4 -11 1 -11 -8 0 -8 -5 -18 -12 -22 -7 -4
-8 -3 -4 4 4 7 1 12 -9 12 -9 0 -13 -4 -10 -10 3 -5 -3 -10 -14 -10 -11 0 -22
-4 -26 -10 -3 -5 -13 -6 -22 -3 -10 4 -14 2 -9 -5 3 -6 2 -13 -4 -17 -5 -3
-10 -1 -10 4 0 6 -5 11 -11 11 -5 0 -8 -4 -5 -9 9 -14 -20 -21 -33 -8 -9 9
-11 7 -5 -8 4 -11 3 -17 -1 -12 -5 4 -19 0 -33 -9 -18 -12 -23 -12 -17 -3 3 8
0 6 -8 -3 -9 -12 -17 -14 -24 -7 -8 8 -13 7 -18 -2 -5 -8 -4 -10 3 -5 7 4 12
2 12 -5 0 -6 -8 -9 -20 -6 -11 3 -23 1 -26 -5 -3 -5 -16 -7 -28 -4 -19 5 -19
4 4 -15 l25 -19 -27 10 c-25 9 -32 6 -30 -11 1 -3 -9 -5 -21 -5 -15 1 -22 -5
-21 -17 2 -15 -1 -16 -13 -5 -12 10 -18 9 -29 -7 -8 -10 -14 -13 -14 -6 0 9
-5 8 -16 -3 -8 -9 -22 -16 -30 -16 -8 0 -12 -5 -9 -10 4 -6 3 -10 -2 -9 -29 5
-53 -3 -54 -18 0 -10 -3 -13 -5 -6 -3 7 -12 9 -20 6 -7 -3 -12 -9 -9 -13 3 -4
-2 -11 -11 -14 -10 -4 -13 -2 -8 6 5 7 3 8 -5 4 -7 -5 -10 -15 -6 -23 4 -13 3
-14 -10 -3 -11 9 -15 9 -15 1 0 -7 -5 -9 -12 -5 -8 5 -9 2 -4 -11 5 -15 4 -16
-9 -5 -10 8 -15 9 -15 1 0 -6 -6 -10 -12 -8 -7 1 -12 -4 -10 -12 3 -12 1 -12
-14 0 -12 9 -15 9 -10 2 4 -8 2 -13 -4 -13 -6 0 -9 -4 -6 -8 2 -4 -8 -8 -22
-7 -20 0 -27 -5 -26 -17 1 -10 -2 -18 -7 -18 -5 0 -9 5 -9 12 0 6 -6 3 -14 -8
-8 -10 -19 -20 -25 -20 -6 -1 -17 -2 -25 -3 -8 0 -22 -8 -30 -17 -9 -8 -20
-13 -24 -10 -5 3 -19 -6 -31 -20 -13 -15 -27 -22 -34 -17 -8 5 -8 2 1 -9 11
-14 10 -16 -6 -11 -11 2 -23 0 -26 -6 -4 -6 -2 -11 5 -11 7 0 10 -3 7 -6 -4
-3 -15 -1 -27 5 -17 10 -19 8 -16 -10 4 -21 4 -21 -16 -3 -11 10 -20 14 -19 9
5 -22 -1 -35 -15 -35 -7 0 -18 -6 -22 -12 -11 -18 -49 -47 -39 -30 11 19 -2
14 -24 -8 -12 -12 -26 -18 -32 -14 -7 4 -8 3 -4 -4 4 -7 2 -13 -3 -13 -21 -3
-26 -5 -46 -16 -11 -7 -15 -13 -10 -13 6 0 18 6 25 12 9 8 9 6 -1 -5 -9 -10
-26 -19 -38 -20 -14 -1 -20 -6 -16 -16 5 -11 3 -12 -10 -1 -13 11 -14 10 -9
-5 5 -13 4 -16 -4 -11 -8 4 -12 0 -12 -10 0 -16 -1 -16 -15 2 -14 19 -14 18
-10 -2 3 -18 -1 -21 -18 -17 -18 4 -20 3 -7 -7 13 -10 11 -11 -7 -7 -14 3 -21
0 -20 -7 1 -6 -6 -10 -15 -10 -10 1 -17 -1 -16 -5 3 -24 -4 -33 -23 -28 -17 5
-18 3 -7 -10 12 -14 11 -15 -9 -5 -19 11 -21 10 -18 -7 2 -13 -1 -18 -10 -15
-7 3 -16 0 -21 -7 -5 -8 -3 -10 6 -4 9 5 11 4 6 -3 -5 -8 -13 -9 -25 -2 -15 7
-18 6 -17 -8 0 -10 -6 -16 -16 -16 -15 1 -16 -2 -6 -20 10 -19 10 -20 -6 -6
-16 13 -20 12 -31 -3 -6 -9 -16 -13 -20 -9 -5 4 -5 -2 -1 -12 6 -17 5 -17 -11
-5 -9 8 -14 9 -10 2 4 -7 -1 -14 -13 -18 -11 -3 -20 -11 -20 -17 0 -6 7 -5 17
3 16 13 17 12 4 -3 -7 -10 -17 -15 -22 -12 -5 3 -9 -1 -9 -8 0 -9 -3 -9 -10 2
-7 11 -10 11 -10 2 0 -8 -5 -10 -12 -6 -8 5 -7 0 2 -11 11 -14 11 -17 1 -11
-9 6 -20 0 -35 -16 -11 -13 -19 -19 -16 -13 3 6 -5 0 -16 -13 -12 -14 -27 -21
-33 -18 -6 4 -15 -3 -20 -17 -6 -14 -16 -29 -23 -33 -9 -5 -8 -2 2 11 14 17
14 17 -7 5 -12 -8 -20 -21 -18 -31 3 -13 -1 -16 -12 -12 -11 4 -14 2 -9 -5 5
-8 2 -10 -8 -6 -14 5 -20 -5 -18 -27 1 -4 -8 -4 -20 -1 -16 4 -19 2 -13 -8 6
-10 4 -12 -9 -7 -13 5 -16 3 -12 -11 4 -12 1 -19 -8 -19 -9 0 -12 5 -9 10 3 6
1 7 -5 3 -7 -4 -12 -14 -12 -21 0 -9 -6 -12 -15 -9 -11 5 -13 2 -8 -12 5 -13
3 -15 -7 -9 -10 6 -12 4 -6 -10 6 -16 4 -16 -11 -4 -15 12 -16 12 -10 -3 4
-12 2 -15 -8 -11 -9 3 -18 -4 -24 -18 -5 -13 -10 -18 -10 -11 -1 6 -6 12 -11
12 -7 0 -7 -6 -1 -18 7 -14 6 -19 -4 -19 -8 0 -12 4 -9 8 2 4 0 11 -6 14 -6 4
-10 3 -9 -2 5 -28 -2 -45 -17 -39 -8 3 -12 2 -9 -4 4 -6 -4 -14 -17 -19 -14
-6 -17 -10 -8 -11 9 -1 6 -5 -8 -11 -15 -6 -21 -13 -16 -21 5 -9 2 -8 -9 1
-15 12 -17 12 -11 -3 5 -13 2 -15 -12 -9 -16 6 -17 4 -6 -9 10 -13 9 -15 -11
-13 -15 2 -24 -2 -24 -11 0 -11 3 -11 16 -1 14 11 14 10 2 -6 -8 -10 -20 -16
-27 -13 -7 3 -16 0 -20 -6 -5 -7 -2 -8 6 -3 9 6 11 4 6 -4 -5 -7 -14 -10 -22
-7 -9 3 -11 0 -7 -11 4 -11 2 -14 -5 -9 -8 4 -16 -3 -22 -18 -5 -14 -12 -26
-15 -26 -4 0 -4 4 -1 8 3 5 -1 9 -9 9 -11 0 -12 -5 -3 -21 6 -12 7 -18 3 -14
-4 4 -14 0 -22 -10 -12 -15 -13 -14 -2 8 11 23 11 24 -5 11 -10 -8 -15 -22
-13 -32 3 -11 0 -16 -8 -13 -19 7 -30 -16 -14 -27 9 -7 5 -7 -13 -3 -18 4 -28
2 -28 -6 0 -6 5 -8 12 -4 7 4 8 3 4 -4 -9 -16 -33 -15 -40 1 -3 6 -3 0 0 -14
4 -17 0 -30 -12 -40 -16 -13 -16 -12 -4 11 12 23 12 24 -4 11 -12 -10 -15 -23
-11 -40 4 -20 3 -22 -5 -11 -9 13 -11 13 -20 0 -9 -13 -11 -13 -20 0 -12 19
-13 8 0 -24 7 -20 6 -24 -5 -19 -8 3 -12 10 -8 16 3 6 1 7 -6 3 -6 -4 -8 -12
-5 -18 5 -7 2 -9 -8 -5 -11 4 -14 1 -11 -12 2 -10 -3 -24 -13 -32 -16 -13 -16
-12 -4 11 12 23 12 24 -4 11 -10 -8 -15 -22 -13 -31 3 -13 -2 -16 -23 -15 -15
1 -27 -3 -27 -9 1 -32 -4 -47 -13 -41 -9 6 -14 -7 -11 -27 0 -4 -5 -5 -13 -2
-8 3 -17 0 -22 -7 -4 -7 -3 -10 3 -6 5 3 10 0 10 -8 0 -8 -8 -12 -19 -10 -12
3 -23 -4 -30 -20 -6 -13 -15 -22 -21 -18 -6 3 -7 2 -4 -4 4 -6 -1 -19 -9 -29
-9 -10 -12 -13 -8 -5 5 10 3 12 -5 7 -7 -5 -10 -15 -7 -23 5 -11 2 -13 -10 -9
-12 5 -15 2 -10 -10 4 -11 -1 -18 -15 -21 -13 -4 -18 -11 -14 -21 4 -12 3 -13
-10 -2 -13 11 -14 10 -9 -5 5 -12 4 -16 -3 -12 -17 10 -25 -23 -11 -41 10 -12
6 -11 -15 3 -26 17 -27 17 -20 0 4 -12 3 -16 -4 -12 -7 4 -10 0 -8 -10 4 -25
-13 -43 -33 -36 -9 3 -14 3 -10 -2 4 -4 0 -14 -10 -22 -9 -8 -11 -11 -3 -7 10
5 12 3 7 -5 -5 -7 -14 -10 -21 -7 -9 3 -12 -3 -11 -19 2 -17 -1 -22 -12 -17
-11 4 -13 2 -7 -8 6 -10 4 -12 -8 -7 -12 4 -14 2 -10 -10 5 -13 2 -15 -12 -10
-14 6 -16 5 -6 -7 9 -11 7 -15 -11 -19 -12 -4 -19 -9 -16 -12 3 -4 -5 -17 -19
-31 -13 -13 -22 -28 -18 -33 3 -5 0 -13 -6 -17 -8 -4 -9 -3 -5 4 4 7 3 12 -3
12 -5 0 -13 -14 -16 -31 -5 -23 -9 -28 -16 -18 -7 12 -9 11 -10 -1 -1 -8 -1
-19 0 -24 1 -5 -6 -3 -15 5 -13 10 -16 10 -10 1 4 -7 2 -20 -6 -29 -11 -14
-11 -16 1 -8 10 5 12 4 7 -3 -4 -7 -14 -12 -22 -12 -8 0 -14 -6 -14 -14 0 -8
-7 -16 -15 -20 -8 -3 -15 -13 -15 -21 0 -9 -4 -13 -10 -10 -6 4 -7 -1 -3 -11
5 -13 3 -15 -7 -9 -10 6 -12 4 -7 -8 4 -11 1 -17 -7 -17 -8 0 -13 -8 -12 -17
0 -12 -5 -17 -15 -15 -19 3 -35 -24 -38 -65 -1 -16 -3 -16 -11 -3 -8 13 -10
13 -11 -2 -3 -32 -4 -36 -13 -45 -5 -5 -6 -2 -1 7 4 8 -2 5 -14 -7 -23 -25
-28 -38 -8 -27 6 4 -4 -8 -23 -26 -19 -18 -26 -26 -16 -19 18 13 18 13 6 -8
-8 -12 -18 -19 -24 -16 -5 4 -7 -3 -4 -15 5 -19 3 -20 -13 -12 -15 9 -17 7
-12 -5 3 -10 -3 -24 -16 -36 -23 -22 -29 -37 -8 -23 7 5 4 0 -8 -11 -11 -11
-27 -29 -35 -39 -13 -18 -13 -19 0 -12 8 4 6 -1 -5 -11 -12 -10 -27 -27 -35
-38 -13 -18 -13 -19 0 -10 9 6 4 -1 -10 -14 -14 -13 -18 -20 -10 -16 8 5 5 -2
-8 -15 -13 -12 -21 -28 -18 -36 3 -7 0 -16 -6 -20 -7 -5 -8 -2 -3 6 5 9 4 11
-3 6 -7 -4 -12 -14 -12 -22 0 -8 -4 -14 -9 -14 -6 0 -8 -8 -6 -19 2 -12 -2
-18 -13 -17 -11 1 -16 -5 -14 -16 2 -10 -2 -18 -9 -18 -6 0 -8 -7 -5 -16 4
-10 2 -13 -6 -8 -8 5 -9 2 -5 -9 3 -9 1 -19 -5 -23 -7 -5 -8 -2 -3 6 6 9 4 11
-4 6 -7 -5 -10 -13 -8 -20 5 -13 -18 -38 -27 -28 -4 3 -4 -1 0 -11 3 -10 1
-17 -6 -17 -6 0 -9 -4 -5 -9 3 -5 1 -12 -5 -16 -6 -4 -7 -11 -4 -17 4 -6 2 -8
-3 -5 -12 8 -26 -20 -18 -33 3 -5 0 -12 -6 -16 -8 -5 -10 -2 -5 7 4 8 1 5 -8
-5 -8 -10 -13 -23 -10 -28 3 -4 -2 -11 -11 -14 -13 -5 -13 -9 -3 -22 10 -12
10 -14 1 -8 -8 4 -13 2 -13 -4 0 -6 -4 -9 -9 -5 -6 3 -8 -4 -6 -15 2 -11 -1
-20 -7 -20 -5 0 -7 -7 -4 -16 3 -8 2 -12 -4 -9 -9 5 -12 -1 -9 -21 0 -3 -8
-12 -18 -19 -10 -7 -15 -17 -11 -20 4 -4 0 -14 -8 -22 -8 -9 -13 -22 -10 -30
3 -8 2 -12 -3 -8 -5 3 -16 -8 -25 -25 -8 -17 -10 -28 -5 -24 6 3 5 -3 -3 -15
-7 -12 -17 -21 -22 -21 -4 0 -6 -12 -3 -26 3 -17 -1 -29 -13 -36 -10 -7 -15
-18 -12 -26 3 -10 1 -13 -6 -8 -11 6 -17 -5 -13 -26 0 -5 -4 -8 -10 -8 -5 0
-7 -4 -4 -10 3 -5 2 -10 -4 -10 -6 0 -7 -7 -4 -17 5 -12 3 -14 -8 -8 -8 4 -11
4 -6 0 4 -5 0 -19 -8 -31 -11 -17 -12 -24 -2 -27 7 -3 5 -6 -5 -6 -18 -1 -24
-16 -10 -24 4 -2 1 -2 -5 -1 -7 2 -13 -5 -13 -16 0 -11 -5 -20 -11 -20 -8 0
-7 -6 2 -17 12 -15 12 -16 -4 -10 -20 7 -22 -4 -4 -22 10 -10 8 -11 -7 -5 -13
5 -17 4 -12 -4 4 -7 3 -12 -3 -12 -6 0 -8 -6 -5 -14 3 -8 0 -17 -6 -21 -8 -5
-8 -10 0 -20 9 -11 6 -13 -12 -9 -13 2 -17 1 -10 -2 10 -5 8 -10 -7 -21 -17
-11 -19 -18 -11 -34 9 -15 7 -19 -6 -19 -13 0 -14 -3 -4 -15 10 -12 9 -16 -5
-21 -13 -5 -14 -9 -3 -15 10 -7 9 -9 -5 -9 -15 0 -16 -3 -6 -22 11 -20 10 -21
-3 -10 -13 10 -17 10 -21 -2 -3 -7 -1 -18 5 -24 6 -6 6 -12 -3 -17 -8 -6 -10
-4 -4 5 5 9 4 11 -4 6 -6 -4 -9 -18 -7 -31 3 -17 1 -22 -9 -18 -10 3 -13 -1
-10 -16 2 -12 -1 -21 -7 -21 -6 0 -8 -3 -5 -7 4 -3 1 -13 -6 -21 -10 -13 -9
-15 3 -8 9 4 8 2 -2 -7 -10 -8 -15 -17 -11 -20 3 -4 0 -13 -7 -22 -7 -8 -10
-22 -6 -30 3 -9 2 -13 -3 -10 -5 3 -12 1 -16 -5 -3 -5 -1 -10 4 -10 6 0 11 -5
11 -11 0 -5 -4 -8 -9 -5 -5 3 -11 -3 -14 -14 -3 -11 -1 -18 3 -15 5 3 12 0 16
-6 4 -8 3 -9 -4 -5 -7 4 -12 2 -12 -4 0 -6 -4 -8 -10 -5 -14 9 -12 -8 3 -24 6
-8 7 -11 2 -8 -15 8 -31 -23 -30 -59 0 -24 -4 -30 -15 -26 -13 5 -13 3 -1 -11
11 -14 11 -18 -3 -23 -14 -5 -14 -9 -4 -22 9 -11 9 -13 1 -9 -6 4 -14 3 -18
-3 -3 -5 0 -10 7 -10 10 0 10 -2 -1 -9 -8 -5 -11 -16 -8 -26 4 -9 3 -14 -2
-11 -5 3 -12 -1 -15 -10 -3 -8 -2 -12 4 -9 6 3 10 2 10 -3 0 -6 -8 -13 -17
-17 -17 -7 -16 -8 2 -15 16 -7 16 -9 3 -9 -11 -1 -15 -8 -14 -26 2 -13 -1 -22
-5 -19 -5 3 -9 0 -9 -6 0 -6 -5 -8 -12 -4 -7 4 -8 3 -4 -5 4 -6 11 -9 15 -7 4
3 8 -1 8 -9 0 -8 -5 -13 -10 -12 -5 1 -12 -4 -15 -12 -3 -9 0 -11 8 -6 8 5 7
-1 -3 -16 -20 -28 -22 -43 -5 -33 8 4 7 0 -2 -12 -27 -34 -41 -64 -30 -64 5 0
10 5 10 12 0 6 3 8 7 5 3 -4 -1 -15 -10 -25 -9 -10 -15 -28 -12 -40 2 -12 -1
-25 -7 -28 -7 -4 -8 -2 -4 4 4 7 3 12 -3 12 -5 0 -9 -9 -8 -19 0 -11 4 -18 8
-15 4 2 6 -4 4 -13 -1 -10 -9 -17 -18 -17 -14 1 -14 -1 0 -22 14 -22 14 -24
-1 -18 -9 3 -16 1 -16 -5 0 -6 5 -11 11 -11 5 0 7 -5 4 -10 -4 -6 -10 -8 -14
-6 -4 3 -8 -1 -8 -8 0 -9 7 -12 16 -9 11 4 9 0 -4 -10 -11 -9 -16 -17 -11 -17
6 0 1 -7 -10 -15 -16 -13 -16 -14 -1 -9 9 3 17 1 17 -4 0 -6 -9 -14 -20 -17
-11 -4 -18 -11 -14 -16 3 -5 10 -7 15 -4 16 11 10 -7 -8 -22 -11 -9 -12 -11
-3 -7 10 5 8 0 -4 -15 -20 -22 -20 -22 0 -16 18 6 18 6 2 -8 -14 -11 -15 -16
-5 -27 10 -10 9 -11 -2 -5 -11 6 -13 3 -9 -13 4 -12 0 -26 -8 -33 -12 -9 -12
-15 -2 -27 8 -10 9 -13 2 -9 -16 10 -28 -25 -12 -35 10 -6 10 -8 -2 -8 -13 0
-13 -1 0 -10 10 -6 11 -10 3 -10 -7 0 -13 -5 -13 -11 0 -5 5 -7 12 -3 7 4 8 3
4 -4 -4 -7 -14 -12 -22 -12 -8 0 -12 -5 -9 -10 4 -6 10 -8 14 -6 3 3 7 -4 7
-14 0 -15 -3 -17 -15 -7 -12 10 -13 9 -2 -12 11 -19 11 -22 0 -16 -9 6 -11 3
-6 -8 3 -9 1 -18 -6 -21 -7 -2 -4 -5 7 -5 18 -1 18 -2 -1 -18 -10 -10 -13 -14
-6 -9 18 12 16 1 -3 -18 -12 -12 -12 -16 -2 -16 10 0 9 -3 -2 -10 -11 -7 -12
-10 -2 -10 10 0 10 -4 -2 -16 -16 -16 -22 -39 -8 -31 4 3 7 -5 7 -18 0 -13 -3
-21 -7 -18 -5 2 -8 -5 -8 -17 0 -13 4 -19 12 -14 7 4 8 3 4 -5 -4 -6 -11 -9
-16 -6 -5 3 -8 -3 -8 -12 1 -10 -2 -31 -6 -46 -4 -19 -3 -26 4 -22 5 3 10 1
10 -4 0 -6 -5 -11 -11 -11 -5 0 -8 -4 -5 -9 4 -5 0 -12 -6 -14 -10 -4 -9 -6 1
-6 11 -1 11 -4 1 -16 -9 -11 -10 -15 -1 -15 8 0 7 -6 -4 -16 -12 -12 -13 -19
-4 -30 9 -11 8 -14 -2 -14 -11 0 -11 -2 1 -10 12 -8 12 -10 -5 -10 -18 -1 -18
-2 -3 -10 10 -6 14 -18 11 -30 -5 -17 -8 -18 -22 -8 -14 11 -14 11 -3 -3 7 -9
10 -24 6 -33 -4 -10 -1 -16 7 -16 11 0 11 -3 -1 -10 -12 -8 -12 -10 -1 -10 8
0 4 -8 -10 -21 -13 -11 -19 -18 -12 -14 7 3 17 -5 24 -17 10 -20 10 -21 -2
-11 -12 9 -14 4 -12 -33 1 -24 -1 -43 -5 -40 -4 2 -8 -7 -9 -21 -1 -19 1 -22
8 -12 6 9 9 10 9 2 0 -6 -4 -14 -10 -18 -5 -3 -7 -12 -3 -20 3 -8 0 -15 -7
-15 -10 0 -10 -3 0 -15 10 -12 9 -15 -6 -16 -14 -1 -13 -3 6 -9 19 -6 20 -8 6
-9 -18 -1 -18 -2 -1 -28 15 -22 15 -25 2 -20 -13 5 -15 -2 -12 -39 2 -40 1
-43 -13 -32 -13 11 -14 11 -7 -2 6 -8 10 -31 11 -50 0 -22 5 -34 13 -32 7 1
10 -2 6 -8 -3 -6 -11 -8 -16 -5 -5 4 -9 1 -9 -4 0 -6 5 -11 10 -11 6 0 10 -5
10 -11 0 -5 -3 -8 -8 -6 -4 3 -7 -10 -8 -29 0 -19 4 -34 9 -34 5 0 5 -6 -2
-13 -7 -10 -7 -17 0 -24 8 -8 8 -13 0 -17 -6 -4 -11 -12 -11 -17 0 -6 4 -7 10
-4 6 3 7 -1 4 -9 -3 -9 -10 -14 -14 -11 -11 7 0 -36 14 -54 8 -11 8 -13 -2 -7
-16 10 -14 -61 2 -83 8 -11 8 -13 0 -8 -7 4 -18 -1 -25 -10 -10 -12 -10 -14
-2 -9 7 4 14 2 14 -3 3 -21 4 -26 13 -40 6 -10 5 -12 -2 -7 -7 4 -12 2 -12 -4
0 -6 -6 -8 -12 -5 -7 4 -4 -1 7 -10 17 -14 18 -17 5 -25 -14 -9 -7 -15 14 -11
5 1 4 -4 -2 -12 -7 -8 -11 -25 -8 -38 2 -13 -1 -30 -7 -37 -7 -9 -6 -11 6 -6
16 6 18 -10 4 -33 -5 -8 -3 -13 4 -13 8 0 8 -4 -1 -15 -10 -12 -10 -15 1 -15
11 0 11 -2 -1 -10 -12 -8 -12 -10 5 -10 11 0 15 -4 10 -8 -6 -4 -10 -16 -10
-27 0 -11 -4 -26 -9 -32 -5 -9 -4 -13 5 -13 11 0 11 -2 -1 -10 -8 -5 -10 -10
-4 -10 17 0 25 -28 12 -36 -6 -4 -8 -3 -4 4 3 6 1 14 -5 18 -7 4 -9 3 -5 -4 3
-5 0 -13 -6 -15 -10 -4 -10 -6 0 -6 7 -1 10 -6 6 -13 -5 -7 -3 -8 6 -3 10 6
12 4 7 -8 -3 -9 -2 -19 4 -23 6 -4 6 -11 -2 -20 -11 -13 -6 -18 16 -15 6 1 2
-5 -8 -13 -16 -13 -16 -15 -2 -30 19 -19 6 -22 -15 -3 -8 6 -4 -1 10 -17 14
-16 20 -26 14 -23 -7 4 -11 -5 -11 -23 0 -17 5 -30 10 -30 5 0 4 -6 -2 -14 -8
-10 -9 -16 -1 -21 6 -3 8 -11 5 -16 -4 -5 0 -9 7 -10 7 0 4 -4 -7 -9 l-20 -9
20 -1 c19 -1 19 -1 2 -14 -18 -14 -17 -14 2 -21 12 -3 21 -11 21 -16 0 -6 -4
-7 -10 -4 -5 3 -10 0 -10 -8 0 -8 8 -18 17 -22 17 -6 17 -7 -1 -21 -11 -8 -15
-14 -9 -14 6 0 10 -8 9 -17 -2 -10 4 -21 13 -24 13 -6 12 -9 -8 -16 -20 -8
-21 -11 -8 -16 10 -4 14 -13 11 -22 -4 -8 -1 -15 6 -15 10 0 10 -3 1 -14 -9
-11 -9 -15 1 -19 10 -4 10 -7 -1 -15 -11 -8 -11 -10 0 -15 11 -4 11 -6 1 -6
-10 -1 -9 -6 4 -18 15 -16 15 -17 -2 -23 -15 -6 -16 -7 -2 -13 11 -4 15 -13
11 -26 -3 -14 -1 -21 8 -21 11 0 11 -2 -1 -10 -12 -8 -12 -10 -1 -10 11 0 11
-3 0 -17 -10 -11 -10 -14 -1 -9 8 5 12 -1 12 -23 0 -16 -3 -31 -7 -34 -5 -2
-3 -2 4 -1 17 4 26 -13 11 -20 -10 -5 -10 -7 0 -12 6 -3 12 -12 12 -20 0 -9
-5 -12 -12 -8 -6 4 -4 -3 5 -17 20 -28 22 -39 5 -35 -7 1 -10 1 -5 -1 4 -3 7
-11 7 -19 0 -9 5 -12 10 -9 14 9 13 -8 -2 -23 -7 -7 -8 -12 -2 -12 8 0 14 -29
17 -87 0 -7 7 -13 16 -13 14 0 14 -2 1 -10 -13 -9 -13 -10 0 -10 13 0 13 -1 0
-10 -12 -8 -12 -10 5 -11 l20 0 -20 -9 c-11 -5 -14 -9 -7 -9 7 -1 10 -5 7 -11
-3 -6 -2 -10 3 -10 6 0 13 -7 16 -16 3 -8 2 -12 -4 -9 -6 3 -10 -1 -10 -9 0
-8 8 -20 18 -25 12 -7 13 -10 3 -11 -11 0 -9 -5 5 -22 10 -12 13 -18 5 -13
-11 6 -13 4 -6 -11 4 -10 7 -29 6 -41 0 -13 4 -23 11 -23 6 0 8 -3 5 -7 -4 -3
1 -15 10 -26 10 -11 13 -17 6 -14 -6 4 -14 3 -17 -2 -3 -5 1 -12 9 -15 13 -4
14 -10 5 -26 -13 -24 -4 -44 16 -36 8 3 14 1 14 -4 0 -6 -8 -10 -17 -11 -11 0
-13 -3 -5 -6 6 -2 10 -9 6 -14 -3 -5 -2 -15 3 -21 4 -7 8 -24 9 -38 0 -18 5
-25 20 -23 19 2 19 1 0 -13 -12 -8 -15 -14 -7 -14 8 0 11 -8 8 -20 -3 -10 -2
-19 2 -18 18 2 24 -3 12 -11 -18 -11 -6 -45 11 -35 10 6 10 4 0 -8 -10 -13
-10 -19 3 -32 10 -9 12 -16 5 -16 -6 0 -8 -5 -5 -10 4 -6 10 -8 15 -5 4 3 6
-5 2 -17 -4 -16 -2 -19 9 -13 12 8 12 6 0 -8 -11 -13 -11 -17 -1 -17 8 0 10
-3 7 -7 -4 -3 1 -12 11 -20 9 -8 11 -12 4 -8 -20 10 -10 -40 13 -66 11 -12 15
-19 8 -16 -15 9 6 -52 25 -71 18 -19 15 -27 -5 -11 -15 13 -15 12 -2 -11 8
-14 18 -28 23 -31 4 -4 3 -10 -4 -14 -9 -6 -6 -13 11 -27 21 -17 21 -19 4 -14
-19 6 -19 5 -1 -8 10 -8 15 -19 11 -25 -3 -6 1 -11 11 -11 13 0 14 -3 4 -15
-8 -10 -9 -15 -2 -15 7 0 9 -7 5 -17 -4 -11 -3 -14 5 -9 7 4 12 1 12 -9 0 -10
-5 -13 -12 -9 -7 4 -8 3 -4 -5 4 -6 11 -9 16 -6 4 3 11 -2 14 -11 3 -8 2 -12
-3 -9 -5 3 -13 1 -16 -5 -4 -6 -3 -10 2 -9 27 5 35 -1 23 -16 -8 -10 -9 -15
-2 -15 7 0 9 -7 5 -17 -4 -11 -3 -14 5 -9 7 4 12 3 12 -3 0 -5 -6 -12 -12 -14
-8 -3 -6 -6 5 -6 11 -1 17 -9 17 -26 0 -14 4 -25 9 -25 6 0 8 -9 6 -20 -2 -11
1 -19 7 -17 6 1 13 -4 16 -12 3 -9 0 -11 -7 -6 -9 5 -9 1 0 -14 10 -15 16 -17
22 -8 6 8 7 5 3 -7 -4 -11 1 -27 11 -40 17 -20 17 -20 0 -7 -15 12 -17 12 -11
-3 3 -9 10 -16 14 -16 4 0 11 -7 14 -16 5 -12 3 -14 -7 -8 -7 5 -4 1 6 -8 13
-13 15 -18 6 -18 -12 0 -12 -2 0 -9 7 -5 10 -14 7 -20 -4 -6 0 -14 8 -17 9 -3
16 -15 16 -26 0 -13 4 -17 13 -12 7 5 6 0 -3 -11 -9 -11 -10 -16 -2 -11 7 4
12 1 12 -8 0 -9 4 -16 8 -16 5 0 9 -7 10 -15 1 -8 3 -22 4 -30 1 -8 5 -15 10
-15 5 0 7 -4 4 -9 -3 -4 3 -19 14 -31 16 -18 18 -25 8 -32 -10 -6 -9 -8 4 -8
11 0 15 -6 11 -20 -4 -15 0 -20 13 -20 16 0 17 -2 4 -10 -11 -7 -11 -10 -2
-10 7 0 10 -4 7 -10 -3 -5 -1 -10 5 -10 7 0 9 -7 6 -16 -4 -10 -2 -13 6 -8 8
5 9 2 5 -10 -5 -13 -1 -19 13 -23 15 -4 17 -9 10 -24 -9 -15 -7 -17 11 -14 17
4 19 2 9 -10 -12 -14 -7 -20 14 -16 5 1 3 -6 -5 -15 -9 -12 -9 -15 -2 -10 9 5
13 0 13 -13 0 -12 5 -21 10 -21 6 0 9 -6 8 -12 -2 -7 3 -12 11 -10 12 3 12 0
2 -12 -11 -13 -10 -17 10 -24 14 -6 18 -11 11 -16 -15 -9 8 -37 23 -28 6 3 3
-3 -5 -13 -9 -11 -10 -16 -2 -11 8 5 12 0 12 -13 0 -12 5 -21 12 -21 6 0 8 -3
5 -7 -4 -3 2 -12 13 -20 11 -8 20 -19 20 -25 0 -7 -7 -3 -16 8 -14 18 -15 18
-4 -3 6 -13 16 -23 21 -23 6 0 9 -7 5 -15 -3 -9 0 -15 8 -15 8 0 17 -7 20 -16
3 -8 2 -12 -4 -9 -6 3 -10 1 -10 -4 0 -6 7 -11 16 -11 8 0 13 -4 10 -9 -3 -4
3 -19 14 -31 11 -12 17 -26 15 -30 -3 -4 2 -13 10 -20 8 -7 12 -16 9 -21 -3
-5 0 -9 6 -9 6 0 8 -5 5 -10 -4 -6 -3 -10 2 -9 4 1 15 1 23 0 13 -1 13 -2 0
-11 -8 -5 -12 -10 -7 -11 4 -1 12 -3 17 -4 6 -1 13 -3 16 -4 4 0 1 -8 -6 -16
-10 -12 -9 -15 6 -15 16 0 17 -2 4 -10 -13 -8 -13 -10 2 -10 9 0 20 -5 24 -12
4 -7 3 -8 -4 -4 -7 4 -12 1 -12 -8 0 -9 7 -13 18 -11 11 2 19 -3 19 -10 0 -8
-3 -12 -7 -10 -4 2 -7 -2 -7 -9 0 -8 6 -12 13 -9 11 4 36 -28 40 -52 0 -5 2
-16 2 -22 1 -7 9 -13 18 -13 8 0 12 -5 9 -10 -4 -6 7 -24 24 -41 17 -17 31
-38 31 -47 0 -10 12 -26 28 -36 15 -9 19 -15 10 -12 -10 3 -18 1 -18 -4 0 -6
5 -10 10 -10 15 0 47 -35 43 -47 -2 -5 8 -18 22 -27 21 -14 23 -20 15 -36 -14
-27 -12 -37 3 -15 11 14 16 15 22 5 5 -9 4 -11 -3 -6 -7 4 -12 2 -12 -3 0 -6
4 -11 8 -11 5 0 14 -12 20 -26 7 -15 17 -22 24 -18 7 5 8 3 2 -7 -10 -17 -15
-44 -6 -35 3 4 12 -4 20 -16 11 -18 12 -19 7 -3 -6 20 -6 20 13 0 11 -11 18
-23 15 -27 -2 -5 1 -8 8 -8 9 0 9 -3 0 -14 -10 -12 -8 -14 11 -9 18 4 20 3 8
-6 -13 -9 -12 -11 3 -11 10 0 17 -6 15 -15 -2 -8 13 -29 32 -46 19 -17 30 -28
23 -25 -6 3 -14 2 -17 -3 -3 -5 8 -8 25 -7 l31 2 -24 -17 c-22 -17 -22 -18 -2
-13 15 4 26 -1 36 -15 8 -12 18 -18 23 -13 4 4 3 -2 -3 -14 -7 -14 -7 -25 0
-35 8 -11 9 -11 4 4 -6 20 0 22 18 4 7 -7 11 -18 8 -26 -3 -9 0 -11 8 -6 10 6
12 4 7 -8 -4 -12 -2 -14 11 -10 15 6 16 5 2 -12 -8 -10 -10 -16 -3 -12 6 4 14
1 16 -5 4 -10 8 -9 16 2 6 8 11 10 11 5 0 -6 -5 -16 -11 -22 -8 -8 -7 -13 2
-18 8 -6 10 -4 5 6 -4 8 -1 6 7 -3 8 -10 18 -14 23 -10 4 4 2 -1 -6 -11 -7
-10 -9 -17 -4 -16 22 4 35 -2 28 -13 -5 -8 -2 -9 10 -5 14 5 15 3 6 -13 -8
-16 -7 -18 9 -15 15 3 19 -1 16 -17 -4 -17 -2 -18 12 -6 14 11 15 10 8 -11 -5
-16 -4 -21 4 -17 6 4 11 2 11 -4 0 -6 4 -8 10 -5 6 4 7 -1 3 -11 -3 -10 -2
-15 3 -12 9 6 26 -8 35 -27 2 -5 7 -9 11 -8 5 2 8 -4 8 -13 0 -8 5 -12 10 -9
6 3 10 -3 10 -14 0 -13 7 -21 18 -21 14 0 15 -2 2 -10 -13 -9 -13 -10 0 -11 8
-1 19 -1 23 0 5 1 6 -3 2 -9 -3 -5 -1 -10 5 -10 6 0 9 -4 5 -9 -3 -5 0 -13 6
-17 7 -4 9 -3 5 4 -3 6 -3 13 2 16 12 7 11 -26 -2 -44 -5 -8 -6 -12 -1 -7 4 4
17 -1 28 -10 11 -10 17 -12 13 -5 -4 6 -2 12 3 12 6 0 11 -5 11 -11 0 -5 6 -7
13 -3 9 6 9 5 0 -7 -14 -18 -5 -34 24 -43 13 -4 23 -12 23 -17 0 -6 4 -8 9 -4
5 3 12 1 15 -4 4 -5 1 -13 -5 -17 -8 -5 -9 -3 -4 6 5 9 4 11 -4 6 -18 -11 -4
-25 24 -22 13 2 23 -2 22 -8 -1 -6 3 -10 10 -9 7 2 10 -4 7 -12 -4 -8 1 -17
10 -21 9 -3 16 -10 16 -16 0 -5 -5 -6 -12 -2 -7 4 -8 3 -4 -5 6 -9 11 -9 21
-1 10 9 13 7 11 -7 -2 -12 9 -24 33 -35 20 -10 30 -17 23 -18 -7 0 -23 5 -35
11 -21 10 -21 10 -3 -5 11 -9 24 -16 29 -16 4 0 5 -6 1 -12 -5 -9 -2 -9 9 1 9
7 17 9 17 3 0 -16 71 -83 81 -76 12 7 7 -19 -6 -29 -5 -5 1 -5 14 -2 20 6 23
4 17 -10 -6 -16 -4 -16 11 -4 9 8 14 9 10 3 -4 -6 2 -21 12 -33 19 -21 37 -29
26 -11 -4 6 1 7 11 3 11 -4 13 -8 6 -11 -17 -5 -15 -22 4 -22 8 0 13 -4 10 -9
-6 -8 30 -25 47 -22 5 1 5 -3 2 -10 -8 -12 29 -51 40 -41 4 4 5 -2 3 -13 -2
-14 3 -20 17 -20 34 -1 48 -14 33 -33 -11 -13 -11 -15 3 -10 18 7 52 -25 41
-38 -4 -5 0 -3 9 4 13 10 19 9 30 -5 9 -11 10 -14 2 -9 -8 4 -13 2 -13 -5 0
-6 8 -9 20 -6 17 4 18 2 9 -14 -5 -10 -8 -19 -7 -20 2 0 12 -2 23 -3 25 -3 65
-36 65 -53 0 -7 4 -13 10 -13 5 0 7 6 4 14 -3 8 -1 17 4 20 5 3 9 -2 8 -12 0
-9 4 -16 11 -15 8 2 10 -4 6 -14 -4 -10 -2 -14 5 -9 7 4 10 -1 7 -14 -2 -11 0
-18 5 -15 4 3 10 2 13 -2 2 -5 2 -2 1 5 -2 6 1 12 6 12 6 0 10 -7 10 -16 0 -9
5 -12 12 -8 8 5 7 0 -2 -11 -14 -17 -13 -18 2 -12 10 3 20 2 23 -4 4 -5 11 -7
16 -3 5 3 9 2 8 -3 -4 -20 2 -33 15 -33 8 0 17 -6 19 -12 4 -10 8 -9 16 2 6 8
11 10 11 5 0 -6 -5 -16 -12 -23 -9 -9 -9 -12 1 -12 7 0 9 -5 5 -12 -4 -7 -3
-8 5 -4 6 4 9 12 6 17 -11 17 4 9 25 -13 15 -17 17 -24 8 -30 -8 -5 -2 -6 15
-2 17 4 27 2 27 -6 0 -6 -5 -8 -12 -4 -9 5 -8 2 1 -9 11 -13 17 -15 28 -6 7 7
16 9 20 5 3 -3 1 -6 -6 -6 -9 0 -9 -4 1 -14 8 -9 15 -10 19 -4 4 6 10 1 14
-11 3 -12 10 -19 15 -16 5 3 11 -4 15 -15 4 -11 10 -18 15 -15 5 3 15 -1 23
-9 8 -8 17 -12 21 -9 3 4 6 2 6 -3 0 -6 -5 -15 -11 -21 -9 -9 -3 -10 22 -7 19
3 30 1 24 -3 -5 -4 -11 -15 -13 -23 -3 -11 2 -10 17 4 21 19 21 19 21 -5 0
-20 2 -21 11 -9 9 12 10 11 6 -8 -3 -12 -1 -20 3 -17 5 3 10 2 13 -2 2 -5 2
-3 1 4 -2 6 3 14 10 16 8 3 13 -1 12 -11 0 -9 5 -16 12 -15 16 4 16 -14 0 -21
-7 -3 -1 -3 14 -1 24 3 27 1 19 -14 -8 -13 -5 -17 12 -18 17 -2 19 0 7 7 -11
7 -11 10 -2 10 7 0 15 -7 18 -15 4 -8 10 -12 15 -9 5 3 9 1 9 -5 0 -5 -6 -12
-12 -15 -7 -3 -2 -3 11 0 16 4 21 3 17 -5 -4 -6 0 -11 9 -11 10 0 13 5 9 12
-4 7 5 2 19 -11 15 -13 24 -27 22 -32 -3 -4 6 -6 20 -5 13 2 22 0 20 -4 -6
-10 20 -32 28 -23 13 12 7 -13 -6 -27 -9 -11 -8 -11 7 0 15 12 20 12 23 3 3
-7 14 -13 24 -13 11 0 17 -5 14 -10 -3 -6 3 -10 14 -10 12 0 21 -5 21 -11 0
-5 6 -7 13 -3 7 5 6 0 -3 -11 -14 -17 -13 -18 3 -12 22 8 47 -1 47 -19 0 -8 6
-11 17 -7 10 4 14 2 10 -4 -4 -6 0 -14 9 -17 8 -3 12 -10 9 -16 -3 -5 -1 -10
4 -10 14 0 14 13 0 27 -8 8 -7 13 3 18 7 5 10 5 6 1 -8 -10 23 -47 34 -40 4 3
8 0 8 -6 0 -6 5 -8 10 -5 6 3 10 -3 10 -14 0 -12 5 -21 11 -21 5 0 7 4 4 10
-3 6 1 7 9 4 9 -3 13 -10 10 -15 -3 -5 7 -9 22 -9 21 0 25 -4 21 -19 -5 -19 7
-22 29 -8 7 4 17 0 24 -8 7 -8 16 -12 21 -9 5 3 9 2 8 -3 -3 -20 2 -34 10 -28
6 3 14 -3 20 -12 10 -17 10 -17 11 0 0 9 5 17 11 17 5 0 7 -5 4 -10 -3 -6 5
-14 19 -20 14 -5 24 -15 22 -22 -1 -7 -1 -10 1 -5 3 4 9 7 14 7 6 0 7 -6 3
-12 -5 -8 0 -7 11 2 11 9 16 10 11 2 -4 -7 -1 -12 8 -12 9 0 16 -4 16 -10 0
-5 7 -10 16 -10 9 0 12 -5 8 -12 -6 -10 -5 -10 8 0 13 10 18 9 29 -5 8 -9 9
-14 2 -10 -6 4 -15 2 -19 -4 -4 -7 -3 -9 4 -5 6 3 15 -2 21 -11 6 -10 11 -12
11 -5 0 19 28 14 40 -8 7 -12 16 -18 23 -13 17 11 38 13 32 3 -3 -5 -1 -11 5
-15 6 -4 8 -11 5 -16 -4 -5 4 -5 19 1 21 8 24 7 19 -7 -4 -11 -2 -14 5 -9 6 4
19 -2 29 -13 12 -15 20 -18 30 -9 17 13 17 -3 0 -22 -6 -8 -1 -6 12 5 l24 20
-6 -25 c-6 -24 -5 -24 8 -6 14 18 20 13 17 -15 -1 -9 43 -5 51 6 5 6 6 -3 3
-20 -4 -16 -3 -25 1 -20 4 6 19 16 33 24 l25 14 -20 -24 c-11 -13 -16 -21 -11
-17 5 4 14 0 21 -9 9 -13 14 -13 20 -3 5 9 4 11 -3 6 -7 -4 -12 -3 -12 2 0 6
7 12 15 16 8 3 14 2 14 -2 -4 -25 3 -34 22 -29 17 5 18 3 7 -11 -10 -12 -10
-14 -1 -8 18 10 53 16 52 8 -4 -28 1 -34 18 -21 15 12 16 12 10 -3 -7 -20 8
-34 19 -17 5 8 3 9 -6 4 -9 -6 -11 -4 -5 5 6 10 11 9 21 -5 7 -10 20 -15 29
-12 9 4 15 1 15 -10 0 -13 2 -14 17 -2 14 12 16 12 8 0 -6 -11 -3 -13 14 -8
18 4 20 3 10 -9 -10 -12 -9 -13 6 -8 12 5 16 4 11 -4 -3 -6 -2 -13 4 -17 6 -3
10 4 10 17 l1 23 13 -24 c8 -15 16 -20 20 -12 5 8 14 7 30 -4 12 -8 27 -12 31
-8 5 5 4 1 -3 -8 -10 -13 -7 -15 20 -11 23 3 29 1 23 -8 -5 -9 -2 -10 14 -5
17 5 20 3 14 -12 -6 -16 -5 -17 12 -3 10 8 16 10 12 4 -4 -7 1 -15 11 -19 27
-12 43 -14 36 -4 -9 16 7 10 24 -9 10 -10 13 -11 7 -3 -8 12 -6 13 8 8 10 -4
21 -7 23 -7 3 0 2 -5 -2 -12 -5 -7 -3 -8 7 -2 20 12 40 14 33 3 -3 -5 -11 -6
-17 -2 -7 4 -7 0 1 -10 10 -12 19 -14 38 -7 24 10 35 -3 12 -14 -7 -3 -1 -3
15 1 23 4 26 3 21 -13 -6 -18 -6 -18 8 0 12 15 17 16 23 6 6 -9 4 -11 -6 -5
-12 8 -12 6 0 -8 16 -20 33 -13 24 10 -6 15 -5 16 9 3 9 -8 13 -19 10 -25 -3
-5 -2 -7 3 -3 4 4 15 3 22 -4 11 -9 17 -9 24 3 8 13 13 6 10 -16 -1 -5 6 -1
14 9 8 11 15 16 15 10 0 -5 7 -17 14 -27 12 -16 17 -17 36 -5 18 10 24 10 27
1 3 -7 11 -13 18 -13 7 0 16 -6 18 -12 3 -8 6 -5 6 5 1 10 6 15 11 12 6 -4 7
-12 3 -18 -4 -7 2 -5 12 3 11 9 16 10 11 3 -4 -8 -1 -13 9 -13 9 0 14 -4 10
-9 -6 -10 17 -8 49 5 14 5 17 4 12 -4 -5 -8 3 -12 23 -12 23 0 31 -5 32 -17 0
-14 2 -13 9 4 11 28 20 30 15 3 -2 -11 1 -23 7 -26 6 -4 8 -3 5 3 -11 17 32
22 48 6 12 -11 19 -12 29 -4 10 8 16 7 26 -4 7 -8 16 -12 21 -9 5 3 9 0 9 -7
0 -7 10 -9 25 -7 18 4 23 2 16 -6 -7 -8 -4 -12 9 -12 10 0 17 3 14 7 -9 15 32
3 44 -13 7 -10 18 -18 24 -18 7 0 3 7 -8 16 -17 15 -17 15 8 0 15 -9 50 -17
78 -18 36 -2 49 -6 46 -15 -3 -7 0 -15 6 -19 7 -4 8 -3 4 4 -5 9 8 11 47 9 30
-1 53 -5 50 -9 -2 -5 5 -8 17 -8 14 0 19 -4 14 -12 -5 -10 -4 -10 6 -1 10 9
16 8 27 -3 17 -17 33 -18 33 -3 0 5 -4 8 -9 4 -5 -3 -12 -1 -15 4 -11 17 24 5
36 -12 11 -14 19 -15 48 -7 22 6 38 6 44 0 14 -14 29 -12 20 3 -5 8 -2 8 9 -2
9 -7 17 -10 17 -6 0 4 6 3 13 -2 6 -6 27 -9 45 -8 22 1 32 -3 32 -13 0 -11 -3
-12 -13 -3 -10 8 -14 7 -14 -3 0 -17 26 -14 36 3 6 10 14 7 30 -11 15 -15 20
-17 16 -6 -5 12 -2 16 12 13 10 -1 17 -9 15 -16 -1 -9 3 -7 12 4 10 13 15 14
18 6 6 -18 70 -17 86 1 10 13 11 12 6 -3 -6 -16 -2 -18 25 -14 26 4 31 2 27
-9 -3 -9 -1 -12 4 -9 6 3 16 3 23 -2 6 -4 19 -8 27 -8 8 0 22 -4 30 -10 13 -8
13 -7 0 9 -13 16 -12 18 5 15 11 -2 26 0 33 5 9 5 15 1 19 -13 7 -26 19 -27
32 -3 10 16 10 15 11 -3 1 -18 2 -18 10 -3 11 18 24 18 56 0 12 -6 24 -8 28
-5 3 3 6 1 6 -5 0 -7 5 -12 11 -12 5 0 8 4 4 9 -3 5 0 13 6 17 7 4 9 3 5 -4
-3 -6 -2 -13 3 -17 5 -3 14 3 20 12 7 12 10 13 11 4 0 -8 7 -11 20 -8 11 3 18
1 14 -4 -3 -5 0 -9 6 -9 6 0 8 -6 4 -12 -4 -7 1 -6 12 3 20 17 99 15 88 -2 -3
-5 0 -9 5 -9 6 0 11 6 11 13 0 8 9 13 23 11 12 -1 26 -3 30 -3 5 -1 6 -5 2
-10 -3 -5 -1 -13 5 -16 6 -4 9 -2 8 3 -2 6 0 9 3 9 3 -1 13 4 23 12 14 12 16
12 10 -4 -5 -13 -4 -16 4 -11 7 4 12 2 12 -6 0 -9 3 -9 10 2 5 8 10 11 10 6 0
-5 6 -3 14 3 11 10 17 8 25 -6 9 -16 10 -16 11 -1 0 10 7 15 18 13 9 -2 21 -4
25 -4 5 -1 6 -5 2 -10 -3 -5 0 -13 6 -17 7 -4 9 -3 5 4 -3 6 -2 13 4 17 5 3
10 -2 11 -12 0 -10 3 -13 6 -5 2 6 14 12 24 12 11 0 18 -4 15 -9 -4 -5 5 -4
19 2 14 7 25 16 25 22 0 5 7 0 15 -12 l16 -22 35 20 c20 11 33 15 30 10 -3 -5
1 -11 9 -15 8 -3 15 -1 15 4 0 6 4 10 10 10 5 0 7 -8 4 -18 -5 -13 -4 -14 4
-3 6 8 17 11 26 8 10 -4 16 -1 16 9 0 8 4 13 10 9 5 -3 7 -13 4 -23 -5 -14 -4
-15 5 -2 10 13 12 13 21 0 8 -13 10 -12 11 5 0 12 3 15 6 7 4 -10 9 -9 20 5
12 15 14 15 10 2 -4 -13 -1 -15 14 -12 11 3 16 10 12 17 -4 6 1 5 10 -3 9 -7
14 -17 11 -22 -3 -5 0 -9 6 -9 7 0 9 9 5 23 -4 12 -3 17 2 11 4 -7 26 -12 48
-12 45 -1 65 -4 82 -15 6 -4 15 -2 19 4 4 8 3 9 -4 5 -7 -4 -12 -1 -12 8 0 13
3 13 27 1 23 -12 28 -12 40 3 13 15 13 14 8 -8 -4 -17 -3 -21 3 -11 6 9 12 10
16 2 8 -13 45 19 39 34 -3 6 3 1 11 -9 16 -20 16 -20 17 0 0 18 1 18 9 -1 6
-13 9 -15 9 -5 1 13 2 13 11 0 7 -11 10 -11 10 -2 0 7 4 11 9 8 5 -4 12 0 14
6 3 7 6 2 7 -12 1 -23 2 -23 10 -5 5 11 9 15 9 9 1 -6 8 -11 16 -11 11 0 12 4
4 14 -16 18 -4 16 15 -3 9 -8 16 -11 16 -5 0 6 4 11 10 11 5 0 7 -8 5 -18 -3
-9 1 -3 9 13 8 17 15 24 16 18 0 -7 12 -13 26 -13 17 0 23 4 18 13 -4 7 -3 9
2 4 5 -5 9 -13 9 -18 0 -5 4 -8 10 -6 5 1 9 5 8 9 -5 14 15 9 31 -8 9 -8 16
-12 16 -7 0 5 -5 14 -10 19 -7 7 -6 11 5 11 8 0 15 -5 15 -11 0 -5 7 -1 15 10
11 14 14 15 9 3 -4 -13 0 -17 19 -15 14 0 23 4 20 9 -2 4 1 7 6 7 6 0 11 -4
11 -10 0 -5 5 -10 11 -10 5 0 7 5 3 12 -5 8 -2 9 9 5 11 -4 17 -1 17 9 0 8 5
12 10 9 6 -4 8 -11 4 -16 -9 -15 19 -6 34 11 12 13 13 13 8 -2 -3 -10 -1 -20
5 -23 5 -4 9 -3 8 2 -1 4 -1 15 0 23 1 13 2 13 11 0 9 -13 11 -13 20 0 7 12
10 12 10 1 0 -8 7 -5 18 9 17 21 18 21 32 4 14 -17 13 -18 -2 -6 -24 19 -35
-5 -12 -26 17 -16 17 -16 3 2 -13 18 -12 19 3 13 11 -4 21 0 26 10 7 12 13 13
31 4 15 -8 21 -9 21 -1 0 7 16 10 45 6 37 -4 45 -2 50 15 4 11 10 17 15 14 5
-3 7 -13 4 -23 -4 -12 -3 -14 3 -4 6 8 21 11 37 8 15 -3 24 -1 21 5 -4 5 -11
6 -17 3 -6 -4 -8 -2 -5 4 9 14 43 8 39 -8 -1 -6 2 -9 8 -5 6 3 7 12 3 18 -4 7
2 5 12 -3 10 -8 16 -10 12 -3 -10 15 13 22 41 12 18 -7 24 -5 32 14 7 17 9 18
9 5 1 -10 6 -18 12 -18 5 0 7 6 3 13 -5 7 0 6 11 -3 10 -8 16 -10 12 -4 -7 11
17 23 56 29 9 1 20 4 25 5 17 5 58 -3 65 -14 6 -7 7 -5 3 6 -3 10 -1 20 4 23
6 4 10 1 10 -6 0 -8 5 -7 17 2 9 8 14 9 11 4 -4 -6 2 -12 13 -12 17 -2 18 0 4
13 -23 24 -18 26 12 7 25 -17 27 -17 21 -1 -5 12 -3 15 8 11 7 -3 14 -10 14
-16 0 -6 6 -3 13 8 8 10 19 15 25 11 7 -4 12 -2 12 5 0 7 7 4 15 -7 14 -19 14
-19 11 2 -3 13 1 21 9 21 8 0 12 -4 10 -8 -3 -4 2 -6 11 -5 8 1 19 7 23 14 4
7 12 8 21 2 24 -16 35 -11 14 5 -17 14 -18 15 0 9 10 -4 22 -1 28 7 8 11 9 10
4 -3 -3 -10 0 -20 6 -24 6 -4 8 -3 5 3 -4 6 0 19 8 29 15 18 15 18 9 -1 l-6
-20 17 20 c9 11 18 19 20 18 3 -2 16 -3 30 -3 17 0 25 6 26 18 0 10 3 12 6 4
2 -6 9 -10 14 -6 5 3 9 -2 9 -11 0 -9 5 -13 10 -10 6 4 8 10 5 15 -3 4 3 11
13 15 25 12 43 14 38 6 -3 -4 5 -7 17 -8 12 0 16 1 9 4 -6 3 -10 9 -6 14 3 5
13 5 24 -1 13 -7 21 -7 25 0 4 6 12 7 18 3 8 -5 8 -2 -1 9 -10 13 -9 15 13 10
14 -2 22 -9 18 -15 -3 -6 -1 -7 6 -3 9 6 9 11 -1 24 -12 14 -10 14 11 2 21
-11 23 -10 18 4 -3 8 -1 18 5 22 7 4 8 3 4 -4 -5 -8 2 -12 19 -12 15 0 24 4
20 10 -11 17 7 11 21 -7 13 -17 14 -17 7 1 -4 13 -3 17 5 12 7 -4 12 -2 12 4
0 6 5 8 10 5 6 -4 7 -11 4 -17 -4 -7 -2 -8 5 -4 6 4 9 11 6 16 -7 12 40 24 60
16 9 -3 13 -2 10 4 -3 6 1 10 10 10 10 0 13 -5 9 -12 -5 -9 -2 -9 9 1 18 15
23 26 7 16 -6 -3 -7 1 -4 9 5 14 8 13 23 -2 9 -10 12 -11 6 -3 -8 12 -6 13 9
8 16 -6 17 -5 7 7 -10 12 -8 13 9 9 13 -4 26 0 32 8 8 11 9 10 4 -3 -3 -10 -1
-20 5 -23 5 -4 8 -1 7 7 -2 8 6 12 22 10 19 -1 22 0 10 8 -13 8 -13 11 -1 22
10 10 12 10 7 1 -4 -7 -2 -13 3 -13 6 0 11 6 11 13 0 7 3 8 8 2 12 -16 32 -16
26 0 -4 8 -11 15 -17 15 -6 0 -7 3 -4 7 4 3 15 -2 26 -11 13 -12 21 -14 26 -6
3 5 10 8 15 5 5 -3 16 5 25 17 17 25 24 26 36 6 7 -10 9 -9 9 5 0 10 4 16 9
13 5 -3 12 1 15 9 5 13 10 14 27 4 17 -9 20 -8 14 2 -6 9 -3 10 10 5 15 -5 16
-4 5 9 -11 13 -10 14 4 9 9 -3 23 -1 30 5 11 9 15 9 18 0 3 -10 12 -9 36 2 20
9 27 16 19 21 -8 5 -6 8 6 8 24 0 32 -4 29 -13 -1 -5 2 -6 8 -2 6 3 7 11 4 17
-5 7 -2 9 8 5 22 -8 30 3 16 20 -9 11 -8 13 3 11 8 -2 17 -10 21 -18 5 -12 7
-12 7 3 1 9 8 17 17 17 9 0 12 5 8 13 -4 6 -4 9 1 5 4 -4 17 -2 29 4 11 7 34
13 50 14 15 1 32 7 36 14 4 7 13 9 20 5 9 -6 11 -4 5 5 -6 10 -1 11 21 6 21
-5 25 -4 14 3 -13 9 -13 12 -1 23 10 10 12 10 7 1 -5 -8 -1 -13 9 -13 11 0 15
5 11 16 -3 8 -2 12 3 9 5 -3 12 -1 16 5 4 7 14 6 28 -2 19 -10 20 -9 10 3 -10
13 -8 15 16 13 16 -1 35 2 42 7 9 6 2 7 -21 4 -19 -3 -31 -3 -27 1 4 5 24 9
44 9 22 1 38 8 41 16 3 11 1 11 -7 -1 -6 -8 -11 -10 -11 -4 0 20 13 24 31 8
16 -15 17 -14 12 6 -5 20 -4 21 15 11 18 -10 20 -9 17 8 -2 14 1 18 11 14 7
-3 11 -10 7 -16 -4 -7 13 7 37 31 40 39 45 41 61 26 16 -15 17 -14 12 8 l-6
23 24 -20 c22 -19 23 -19 9 -1 -14 18 -13 19 4 13 14 -6 17 -4 12 9 -6 15 -4
15 11 3 9 -8 14 -9 10 -3 -9 15 47 46 69 37 11 -4 15 -3 11 4 -4 6 1 17 10 24
10 8 14 9 10 2 -4 -6 -3 -15 3 -18 6 -4 9 -1 8 7 -2 7 3 12 11 10 12 -3 12 -1
0 14 -13 16 -12 16 7 6 18 -9 24 -8 35 6 13 16 13 16 -5 2 -18 -14 -19 -14 -5
7 8 14 16 18 20 12 4 -8 9 -8 14 1 4 6 13 9 20 6 8 -3 25 4 39 15 14 11 26 17
26 12 1 -4 10 8 21 27 16 28 19 30 14 10 -2 -14 -2 -19 1 -12 3 6 10 10 14 7
5 -3 7 4 5 15 -2 11 0 18 5 15 5 -3 11 -1 15 5 4 6 11 8 16 5 5 -4 9 -2 9 3 0
12 56 33 65 24 3 -4 3 2 -1 12 -6 16 -5 17 16 6 15 -8 20 -8 16 -1 -4 6 -1 11
6 11 11 0 10 2 0 9 -11 7 -11 9 2 14 9 4 16 1 16 -6 0 -8 3 -8 9 2 5 7 13 11
19 7 6 -4 9 4 8 18 -2 17 1 23 10 19 8 -3 11 -10 7 -16 -4 -6 -1 -7 6 -3 7 5
10 14 7 22 -5 12 -2 12 15 3 17 -9 20 -8 14 2 -6 9 -3 11 8 6 10 -4 22 1 30
14 9 13 21 17 33 13 16 -5 16 -4 4 5 -13 9 -12 12 5 25 11 8 24 12 29 8 5 -3
6 3 2 14 -4 10 -4 15 0 12 10 -10 46 11 39 22 -3 6 1 7 10 3 14 -5 14 -8 3
-15 -10 -8 -10 -9 2 -5 8 2 14 9 13 15 -2 6 6 16 17 22 11 6 20 7 20 3 0 -4 7
3 16 15 8 12 22 22 30 22 8 0 14 5 14 11 0 5 5 7 12 3 8 -5 9 -2 5 9 -3 9 -3
16 1 16 22 -4 42 2 37 11 -5 8 22 15 47 11 4 0 5 6 1 15 -3 8 -2 14 3 12 5 -2
10 2 12 7 5 14 31 27 41 20 5 -3 16 4 24 15 7 11 17 17 22 12 5 -4 5 -1 1 6
-4 6 -2 12 4 12 7 0 10 7 7 14 -4 10 -1 13 8 9 8 -3 12 -10 8 -17 -3 -6 -2 -7
3 -3 5 5 9 14 9 20 0 7 10 12 22 11 19 0 20 2 11 19 -6 13 -6 17 0 13 6 -3 12
-3 15 1 2 5 2 2 0 -5 -1 -7 2 -10 7 -7 6 3 10 13 10 20 0 9 6 12 15 9 10 -4
15 0 15 10 0 9 7 19 15 22 8 4 13 10 10 15 -3 4 4 6 16 4 16 -3 19 0 15 12 -6
14 -4 14 11 2 14 -12 16 -12 8 0 -6 11 -4 13 10 7 14 -5 16 -4 6 7 -9 12 -7
14 11 13 19 -1 23 4 21 24 -1 14 0 19 3 13 8 -18 27 -16 21 1 -4 10 1 12 16 9
18 -4 19 -3 7 6 -13 9 -12 11 4 11 12 0 16 5 13 14 -4 10 -1 13 8 9 8 -3 12
-10 8 -16 -3 -6 -1 -7 6 -3 6 4 8 12 5 18 -5 8 -1 9 10 5 14 -6 17 -3 12 9 -5
13 -2 15 16 11 22 -6 22 -5 4 8 -18 14 -18 15 -2 15 9 0 14 4 11 10 -3 5 0 7
8 5 14 -6 94 62 90 76 -2 4 6 6 17 4 12 -2 18 0 15 5 -7 11 22 40 41 40 13 0
18 12 15 32 -1 10 22 6 30 -5 3 -5 9 -1 12 8 4 9 3 13 -3 10 -6 -3 -10 -2 -10
3 0 16 13 22 26 11 9 -8 11 -5 8 13 -2 13 -2 17 2 11 8 -18 25 -16 18 1 -3 8
0 17 5 21 6 3 9 11 6 16 -3 5 2 6 11 2 13 -5 15 -3 9 8 -7 12 -6 12 7 1 13
-10 18 -9 29 5 13 16 12 17 -3 4 -12 -9 -18 -10 -18 -2 0 6 7 14 15 17 8 4 12
11 9 18 -3 6 1 3 9 -7 13 -16 15 -16 21 -2 4 11 2 14 -6 9 -7 -5 -8 -3 -4 5 5
7 14 10 22 7 10 -4 11 0 3 21 -8 23 -8 24 6 13 8 -7 15 -9 15 -4 0 5 4 2 9 -6
7 -9 9 -2 7 23 -3 30 -1 35 10 26 8 -6 14 -8 14 -3 0 5 5 2 11 -6 8 -12 9 -10
4 8 -6 21 -4 23 17 18 12 -3 17 -3 11 0 -18 8 -16 24 2 24 8 0 15 5 15 11 0 5
6 7 13 3 8 -6 8 -3 -1 9 -12 14 -11 16 7 12 13 -2 19 0 15 6 -3 6 9 24 27 40
28 25 31 32 19 39 -8 5 -10 10 -4 10 5 0 15 -5 22 -12 9 -9 12 -8 12 6 0 12 5
16 14 13 11 -4 13 -1 9 10 -5 13 -2 15 12 10 16 -7 16 -5 4 10 -12 15 -12 16
7 11 18 -5 21 -2 17 16 -3 15 -2 17 5 8 7 -11 11 -9 15 8 3 13 10 19 17 15 6
-3 10 -3 9 2 -4 20 2 27 12 13 9 -13 10 -12 5 3 -4 11 5 27 25 46 21 20 26 31
17 34 -8 4 -7 6 5 6 9 1 17 6 17 12 0 5 5 7 12 3 8 -5 9 -2 5 10 -4 10 -3 15
3 11 6 -3 10 1 10 9 0 8 5 18 12 22 7 5 8 2 3 -7 -4 -8 1 -5 12 6 11 11 19 23
16 28 -2 4 3 7 11 7 8 0 18 5 22 12 5 8 1 9 -12 5 -19 -7 -19 -7 0 8 10 8 24
11 30 8 6 -4 5 1 -3 10 -12 15 -12 17 2 11 12 -4 20 2 27 20 5 14 17 26 27 26
15 0 16 2 3 10 -13 8 -12 10 4 10 12 0 16 5 13 14 -3 8 2 20 11 28 15 12 16
11 3 -5 -8 -10 -9 -17 -3 -17 15 0 33 35 24 45 -4 5 2 5 12 1 16 -5 17 -4 6 9
-11 13 -10 14 5 9 13 -5 16 -4 11 4 -4 7 -1 12 9 12 12 0 15 5 11 16 -5 13 -2
15 16 11 22 -6 22 -5 4 8 -19 15 -19 15 2 15 22 0 48 35 44 57 -2 8 3 10 13 7
10 -4 14 -2 10 8 -3 8 7 23 25 36 16 13 30 28 30 35 0 7 9 19 20 27 14 10 16
16 7 22 -9 6 -8 8 4 8 21 0 53 36 44 49 -3 6 0 11 8 11 17 0 30 27 20 42 -3 7
-1 8 5 4 7 -4 12 -1 12 8 0 8 16 28 36 44 25 21 32 32 23 37 -8 6 -10 4 -4 -5
5 -9 4 -11 -4 -6 -12 8 -5 29 7 22 4 -2 16 6 27 17 11 11 14 17 5 13 -8 -4 -4
2 10 14 14 12 19 18 11 14 -10 -5 -12 -3 -7 5 5 7 14 10 22 7 8 -3 13 -2 13 2
-4 25 3 52 11 47 6 -4 10 6 10 22 0 22 2 25 10 13 8 -13 10 -12 11 5 1 11 1
24 0 28 -1 5 4 5 10 1 9 -5 10 -2 6 9 -4 11 -2 14 9 10 12 -4 14 0 9 23 -3 17
-2 22 2 12 7 -14 11 -13 27 10 11 14 15 22 9 19 -5 -3 -10 0 -10 7 0 8 6 12
14 9 9 -4 11 0 6 13 -4 12 -3 15 5 10 8 -5 12 0 12 13 0 12 5 21 11 21 5 0 7
5 3 12 -5 7 -2 9 9 5 11 -4 15 -1 12 13 -2 10 3 21 11 24 8 3 14 15 14 26 0
14 4 19 12 14 8 -5 9 -2 5 9 -3 9 -1 19 5 23 7 5 8 2 3 -6 -6 -9 -4 -11 4 -5
7 4 11 16 8 26 -3 10 0 17 7 16 6 -1 11 5 11 13 0 8 8 18 19 23 18 7 18 8 0
30 -14 16 -15 18 -2 9 14 -11 18 -10 27 6 6 11 7 22 4 26 -3 3 0 6 7 6 7 0 11
3 7 6 -3 4 1 13 9 21 8 8 11 19 8 25 -4 6 -2 8 3 5 6 -4 13 0 17 8 3 8 0 15
-7 16 -7 0 -2 4 11 9 12 5 22 16 22 25 0 8 5 15 11 15 5 0 7 5 4 10 -3 6 -1
10 6 10 8 0 8 4 -1 15 -11 13 -10 14 5 9 13 -5 16 -4 11 4 -4 7 -3 12 2 12 17
0 23 32 10 49 -11 14 -11 14 3 3 22 -17 46 7 26 27 -9 10 -8 11 7 5 15 -6 17
-4 11 15 -3 12 -3 21 2 20 20 -3 25 2 14 15 -10 12 -8 14 11 10 13 -2 17 -1
10 2 -10 5 -9 10 5 21 10 8 13 12 6 9 -6 -4 -14 -2 -18 4 -3 5 1 10 9 10 8 0
18 5 22 12 5 7 2 9 -7 4 -8 -4 -6 -1 3 7 10 8 15 17 11 20 -3 4 -1 7 6 7 8 0
11 7 7 15 -3 10 1 15 12 15 15 0 15 2 2 10 -12 8 -12 10 5 10 17 0 17 2 5 10
-12 8 -12 10 5 10 17 0 17 2 5 10 -13 8 -12 10 3 10 9 0 18 8 19 18 2 32 4 37
11 50 5 7 13 10 18 7 5 -4 9 -2 9 4 0 5 -6 12 -12 14 -7 3 -4 6 7 6 17 1 17 3
5 11 -8 5 -12 10 -7 11 4 1 12 3 17 4 6 1 13 3 18 4 4 1 0 6 -8 11 -11 7 -11
10 -2 10 8 0 10 5 6 12 -5 8 -2 9 11 4 15 -5 16 -4 5 9 -12 15 -4 21 23 16 5
-1 6 3 2 8 -3 6 -13 8 -23 5 -9 -3 -6 2 8 10 14 8 19 15 12 16 -8 0 -6 8 8 22
23 25 26 38 8 38 -10 0 -9 3 1 9 7 5 10 14 7 20 -4 6 0 11 11 11 17 1 17 2 -1
15 -17 13 -18 15 -3 15 9 0 18 7 18 15 3 29 4 33 13 42 5 5 6 3 2 -4 -4 -7 -2
-13 5 -13 7 0 9 8 6 21 -4 16 -2 19 10 15 13 -5 14 -4 3 9 -11 13 -8 19 11 17
3 -1 6 5 6 13 0 8 -4 12 -9 9 -4 -3 -5 2 -2 10 3 9 14 16 23 16 14 0 14 2 1
10 -12 8 -12 10 -1 10 11 0 11 3 0 17 -12 15 -12 16 4 10 16 -6 22 3 18 26 -1
4 5 14 13 22 8 8 13 28 12 44 -1 16 2 28 6 25 4 -3 8 2 8 11 0 10 5 13 13 9 6
-4 3 3 -8 16 -16 19 -17 22 -3 17 17 -6 33 17 22 34 -3 5 0 9 7 9 8 0 8 4 -1
15 -11 13 -10 14 1 10 10 -4 16 2 17 17 2 13 4 31 5 41 1 10 8 21 15 26 7 4
14 24 15 43 1 20 6 34 11 30 5 -3 7 2 3 11 -3 9 -2 19 3 22 6 4 10 17 10 31 0
14 4 23 9 20 5 -4 8 5 6 19 -1 17 3 25 14 25 14 0 14 2 1 10 -10 6 -11 10 -2
10 7 0 12 13 12 31 0 21 4 28 13 23 6 -4 9 -4 5 1 -4 4 -2 15 5 23 9 13 9 14
0 8 -18 -10 -16 2 2 21 13 12 13 18 3 31 -10 12 -10 14 0 8 13 -8 14 -5 16 44
0 17 6 34 11 38 14 10 18 42 5 42 -6 0 -8 5 -4 11 4 8 9 7 15 -2 6 -10 9 -6 9
14 0 15 6 27 13 27 9 0 8 3 -2 9 -10 6 -10 10 -1 16 6 4 9 13 6 21 -3 8 -2 14
3 14 4 0 7 10 6 23 -1 12 2 27 7 34 5 7 6 18 2 24 -4 7 -3 9 3 6 6 -4 13 0 17
8 3 10 -1 15 -12 16 -15 0 -15 1 1 8 10 4 18 10 18 14 -3 22 0 27 12 21 10 -6
10 -4 0 7 -16 16 -17 33 -2 23 8 -4 8 0 0 15 -9 16 -9 21 0 19 6 -2 13 6 14
17 1 11 6 29 10 39 6 14 5 17 -3 12 -15 -9 -3 26 12 36 12 8 18 40 5 32 -5 -3
-9 -1 -9 5 0 5 4 11 10 13 5 2 11 22 13 45 2 23 6 46 10 49 11 11 8 26 -3 19
-6 -3 -7 1 -4 10 5 13 9 13 23 3 12 -10 11 -7 -2 9 -11 12 -14 22 -8 24 6 2
13 14 16 27 2 13 0 20 -6 17 -5 -4 -9 -1 -9 4 0 6 5 11 11 11 6 0 9 7 5 15 -3
8 -1 15 4 15 6 0 10 4 10 10 0 5 -8 6 -17 3 -17 -6 -17 -6 -2 9 10 11 15 30
13 52 -1 20 2 36 7 36 6 0 7 -5 3 -12 -4 -7 -3 -8 5 -4 6 4 9 12 6 17 -4 5 -1
9 6 9 7 0 4 7 -7 15 -10 8 -14 15 -8 15 7 0 15 7 18 16 3 8 2 12 -4 9 -6 -3
-10 -1 -10 4 0 6 5 11 10 11 6 0 10 5 10 11 0 5 -4 8 -8 5 -5 -3 -9 1 -9 9 0
8 4 12 9 9 12 -8 10 30 -3 43 -9 9 -6 11 12 7 14 -3 19 -2 13 3 -6 4 -14 17
-17 27 -6 15 -5 17 6 8 10 -9 14 -8 14 3 0 8 -5 15 -10 15 -5 0 -4 6 2 14 8
10 9 16 1 21 -5 3 -10 12 -10 18 0 7 4 6 10 -3 8 -13 10 -12 11 5 1 11 2 27 3
35 1 8 -2 25 -6 38 -5 15 -4 21 2 17 7 -4 9 3 6 19 -3 15 0 26 7 26 6 0 2 7
-9 15 -10 8 -14 15 -9 14 23 -3 27 2 14 18 -12 15 -12 16 4 10 22 -8 22 2 0
18 -13 9 -13 14 -3 20 9 5 11 4 6 -3 -4 -7 -2 -12 3 -12 14 0 14 17 1 25 -7 4
-7 13 0 26 9 15 7 21 -5 25 -14 6 -14 8 2 20 10 7 14 14 8 14 -5 0 -3 5 5 10
13 9 13 10 0 10 -13 0 -13 1 0 10 13 8 12 10 -4 10 -20 0 -20 0 0 15 10 8 14
15 8 15 -6 0 -11 7 -11 15 0 8 4 12 9 9 13 -8 10 10 -4 25 -11 11 -10 12 1 6
11 -6 13 -4 8 8 -3 9 1 18 10 21 14 6 14 9 -2 26 -12 14 -14 20 -5 20 10 0 10
3 1 14 -9 11 -9 15 1 19 8 3 6 6 -5 6 -10 1 -15 6 -12 11 4 6 11 7 17 4 7 -4
7 0 0 13 -6 11 -7 25 -2 33 4 7 6 19 3 27 -3 7 1 13 8 13 11 0 11 3 -1 10 -13
9 -13 10 0 10 13 0 13 1 0 10 -8 5 -10 10 -5 10 14 0 14 93 1 102 -7 5 -5 8 4
8 13 0 13 1 0 10 -13 9 -13 11 0 20 12 8 12 10 1 10 -10 0 -11 3 -2 14 9 11 8
18 -6 32 -17 17 -17 17 0 11 9 -3 17 -2 17 3 0 6 -6 10 -12 10 -10 0 -9 3 1 9
11 7 11 10 0 15 -11 5 -11 7 -1 12 6 3 12 10 12 15 0 6 -6 7 -12 3 -9 -5 -9
-2 1 9 12 15 11 17 -5 17 -17 0 -17 1 2 16 13 11 15 17 7 20 -7 3 -13 10 -13
15 0 6 6 7 13 3 8 -5 8 -2 -2 9 -9 11 -10 17 -2 17 6 0 11 5 11 11 0 5 -6 7
-12 3 -9 -5 -9 -2 1 9 12 15 11 17 -3 17 -9 0 -16 5 -16 10 0 6 3 9 8 9 19 -3
25 2 12 11 -10 6 -11 10 -2 10 6 0 12 5 12 11 0 5 -6 7 -12 3 -10 -6 -10 -5
-1 7 10 12 10 18 1 27 -9 9 -9 12 0 12 7 0 12 5 12 11 0 5 -4 8 -9 5 -5 -3
-11 1 -14 9 -4 10 -1 12 11 8 15 -6 15 -5 3 10 -11 14 -11 17 0 17 11 0 11 2
-1 10 -13 9 -13 10 0 10 13 1 13 2 -1 13 -18 13 -14 41 4 30 7 -4 6 0 -1 10
-15 18 -23 67 -11 67 4 0 7 9 6 19 0 11 -5 17 -9 15 -5 -3 -5 -10 -2 -16 4 -7
2 -8 -4 -4 -13 8 -5 36 12 36 6 0 4 5 -4 10 -12 8 -12 10 5 11 17 1 16 2 -5 9
-14 4 -19 8 -12 9 6 1 12 10 12 22 0 11 -4 18 -9 14 -5 -3 -12 -1 -15 4 -4 5
-1 13 5 17 8 5 9 3 4 -7 -5 -8 -4 -10 0 -6 13 11 15 37 3 37 -6 0 -5 6 2 15 9
10 9 15 1 15 -6 0 -11 4 -11 10 0 5 8 7 18 4 15 -5 15 -4 -1 6 -15 10 -16 14
-5 28 11 13 11 14 -1 7 -11 -6 -13 -4 -8 8 4 10 1 17 -6 17 -8 0 -6 4 3 10 12
8 12 10 -5 10 -15 0 -17 2 -6 9 8 5 10 14 5 22 -6 11 -4 12 7 4 8 -5 7 -3 -3
7 -13 12 -15 18 -6 21 10 4 9 8 -2 16 -13 10 -13 11 0 11 13 0 13 1 0 10 -13
8 -13 10 -1 10 11 0 10 4 -5 16 -10 8 -14 13 -7 10 6 -4 14 -2 18 4 3 5 0 10
-7 10 -9 0 -9 3 2 10 8 5 10 10 4 10 -16 0 -25 38 -10 44 7 3 7 5 -1 5 -7 1
-13 6 -13 12 0 5 4 8 9 4 5 -3 13 0 17 6 4 8 3 9 -4 5 -7 -4 -12 -2 -12 4 0 6
-5 8 -12 4 -9 -5 -9 -2 1 9 11 14 11 17 0 17 -11 0 -11 2 1 10 10 6 11 10 3
10 -7 0 -13 5 -13 10 0 6 3 9 8 8 4 -2 7 2 7 7 0 6 -3 9 -6 8 -4 -1 -9 7 -12
17 -3 11 -1 18 4 14 5 -3 9 -1 9 5 0 5 -6 12 -12 14 -10 4 -9 6 1 6 11 1 10 6
-5 23 -10 12 -13 18 -6 14 6 -4 12 -3 12 1 0 5 -6 15 -12 22 -11 11 -10 12 2
6 12 -6 13 -5 3 6 -15 16 -17 33 -3 24 15 -10 12 5 -6 22 -13 13 -13 17 -2 24
10 6 8 9 -7 10 -11 0 -14 3 -7 6 14 6 16 33 2 33 -5 0 -10 5 -10 11 0 5 4 8 8
5 4 -2 8 4 8 14 0 10 -4 16 -9 13 -5 -3 -8 5 -7 18 4 46 0 60 -12 53 -9 -5 -9
-2 1 9 12 15 9 21 -10 19 -3 -1 -6 5 -6 13 0 7 7 11 16 8 13 -4 12 -1 -2 10
-14 11 -15 16 -5 20 8 3 9 6 1 6 -6 1 -9 10 -6 24 4 18 3 20 -7 7 -10 -13 -11
-12 -6 4 4 10 1 26 -6 34 -11 13 -11 14 1 7 11 -6 12 -2 7 21 -4 16 -12 32
-18 35 -6 4 -5 9 3 12 10 4 10 6 2 6 -7 1 -13 6 -13 12 0 5 6 7 13 3 6 -4 1 6
-13 22 -14 15 -18 23 -8 16 12 -10 18 -10 24 -1 4 7 3 10 -2 7 -5 -3 -15 0
-22 8 -10 11 -10 14 0 14 6 0 4 6 -7 13 -13 10 -15 16 -6 21 9 6 9 11 -1 23
-13 16 -21 46 -9 39 4 -3 7 4 7 15 0 21 -12 26 -19 7 -2 -7 -3 8 -2 34 1 26
-1 45 -5 43 -5 -3 -11 2 -14 11 -3 8 -2 12 4 9 6 -3 10 -1 10 4 0 6 -4 11 -10
11 -5 0 -6 7 -3 17 5 12 3 14 -8 8 -12 -8 -12 -6 0 8 12 15 11 21 -10 44 -13
14 -18 23 -11 19 7 -4 12 -1 12 9 0 9 -4 13 -10 10 -6 -4 -10 8 -10 29 0 27
-4 36 -17 37 -15 0 -15 2 2 9 11 5 14 9 7 9 -7 1 -10 6 -7 11 3 6 -1 13 -9 16
-9 3 -13 11 -9 18 15 22 12 38 -5 31 -13 -5 -14 -4 -5 6 10 10 9 15 -5 26 -9
8 -12 12 -5 9 7 -4 11 1 10 14 -1 14 -6 19 -17 15 -9 -3 -8 1 4 10 11 8 14 15
7 15 -7 0 -10 4 -6 9 3 5 0 13 -6 16 -5 4 -8 14 -5 22 3 8 2 12 -3 9 -5 -3
-11 3 -14 13 -3 15 -1 18 12 14 9 -3 6 2 -7 12 -13 9 -21 23 -18 31 3 7 0 16
-5 20 -6 3 -9 15 -6 25 4 13 0 19 -11 19 -13 0 -12 3 4 16 10 8 14 13 9 10 -6
-2 -17 4 -24 16 -7 11 -8 18 -3 14 5 -3 9 1 9 9 0 8 -4 12 -9 9 -4 -3 -8 6 -8
19 0 15 -9 29 -22 36 -13 6 -16 10 -7 7 12 -3 15 1 11 20 -2 13 -8 24 -12 24
-4 0 -11 7 -14 16 -3 8 -2 13 3 10 5 -4 7 3 4 13 -3 11 -11 22 -19 25 -10 4
-11 11 -4 31 9 24 9 25 -13 14 -18 -10 -20 -10 -11 2 9 13 11 30 4 44 -1 3 -3
8 -4 13 -8 34 -20 52 -34 52 -15 1 -15 2 1 11 9 6 15 15 12 20 -4 5 -10 7 -15
4 -5 -3 -11 -1 -15 5 -3 5 0 10 7 10 10 0 9 3 -2 9 -8 6 -18 7 -24 4 -5 -3 -6
-1 -2 6 4 6 12 9 17 6 5 -3 6 1 3 9 -6 15 -18 20 -39 16 -5 -1 -4 4 3 11 17
18 15 49 -3 49 -9 0 -12 6 -8 17 5 12 3 14 -8 8 -11 -7 -11 -5 1 10 9 11 10
16 3 11 -12 -6 -18 5 -14 26 0 4 -8 22 -19 40 -11 18 -20 40 -20 48 0 9 -9 22
-20 30 -20 14 -29 37 -11 25 5 -3 13 -1 16 5 4 6 1 9 -7 8 -7 -2 -14 7 -16 20
-2 12 -8 22 -14 22 -5 0 -8 7 -4 15 3 8 -4 21 -15 29 -15 10 -17 15 -7 19 8 3
5 6 -7 6 -17 1 -17 3 -5 11 12 8 10 10 -10 11 -14 0 -19 3 -12 6 6 2 12 9 12
14 0 6 -6 7 -12 3 -10 -6 -10 -4 0 7 16 18 15 26 -4 33 -15 6 -15 4 -3 -11 13
-16 12 -17 -3 -4 -10 7 -15 17 -13 22 3 4 -3 13 -12 19 -16 10 -16 11 -1 6 12
-3 15 -1 11 9 -3 8 -10 12 -16 8 -6 -4 -8 0 -4 10 4 11 1 17 -7 17 -8 0 -12
11 -11 30 1 24 -1 28 -12 18 -8 -6 -13 -7 -12 -2 3 20 -1 35 -10 30 -5 -3 -8
2 -7 12 0 10 -5 16 -13 14 -12 -3 -12 0 -2 12 14 16 -2 32 -21 20 -7 -5 -8 -3
-2 7 12 20 14 40 3 33 -5 -3 -9 2 -9 10 0 9 -8 16 -17 16 -15 0 -16 2 -3 10
11 7 12 10 2 10 -9 0 -11 7 -7 23 4 12 3 17 -2 11 -6 -9 -11 -8 -21 2 -8 9 -9
14 -2 14 6 0 4 7 -5 16 -9 9 -14 23 -11 30 3 8 2 13 -2 13 -28 -4 -34 2 -16
16 16 13 16 14 2 9 -12 -4 -18 -1 -18 10 0 9 -5 16 -11 16 -5 0 -8 4 -4 9 3 6
-7 21 -21 34 -19 18 -25 31 -20 43 4 10 4 15 0 11 -10 -10 -36 31 -28 45 4 7
3 8 -4 4 -7 -4 -12 -2 -12 4 0 6 -4 9 -9 6 -12 -8 -8 27 4 37 6 5 3 7 -7 3
-10 -3 -20 -1 -23 5 -4 5 -11 6 -17 3 -7 -4 -8 -2 -4 5 4 6 12 9 17 6 5 -3 6
1 3 10 -5 13 -9 13 -22 3 -13 -11 -14 -10 -5 7 9 16 7 25 -7 42 -10 12 -20 19
-24 16 -3 -4 -6 1 -6 10 0 10 -5 17 -10 17 -6 0 -9 6 -8 13 2 6 -3 11 -11 9
-12 -3 -12 -1 0 14 8 10 9 15 2 11 -7 -4 -14 1 -18 13 -4 12 -11 17 -18 13 -7
-4 -5 2 3 12 14 17 13 18 -2 12 -11 -4 -17 -2 -15 6 1 7 -4 11 -11 9 -10 -2
-10 2 -2 19 11 19 10 20 -12 14 -21 -7 -22 -7 -8 10 14 17 13 18 -2 12 -12 -4
-15 -2 -11 9 3 7 0 14 -6 14 -6 0 -8 8 -4 18 6 15 5 15 -11 3 -16 -13 -17 -13
-14 5 2 12 -2 18 -11 16 -12 -3 -12 0 -2 12 10 12 8 16 -10 21 -17 6 -19 9 -8
17 10 7 7 8 -10 4 -18 -4 -21 -2 -12 7 13 13 15 28 2 25 -5 -2 -10 2 -12 7 -5
18 -24 33 -34 27 -5 -3 -3 3 5 13 9 11 10 16 3 11 -8 -4 -13 -2 -13 4 0 6 -4
8 -10 5 -5 -3 -7 0 -4 8 3 8 0 18 -5 22 -6 3 -8 12 -4 18 4 8 1 7 -9 -1 -14
-12 -16 -10 -10 10 5 21 4 22 -11 9 -15 -12 -17 -12 -11 4 5 13 4 16 -4 11 -8
-5 -10 -2 -6 8 4 9 -1 18 -10 22 -9 3 -13 10 -10 15 3 5 -3 9 -12 9 -10 0 -14
3 -11 7 11 11 -14 32 -31 26 -15 -4 -15 -3 -2 6 9 7 11 14 5 19 -6 4 -16 19
-24 34 -12 23 -17 26 -29 15 -13 -10 -14 -9 -3 11 12 23 8 27 -29 23 -10 -1
-11 1 -3 6 14 10 -10 48 -25 39 -5 -3 -9 1 -9 9 0 8 5 11 11 7 6 -3 0 8 -14
25 -14 18 -31 32 -37 32 -7 1 -13 6 -13 12 0 5 -6 7 -12 3 -8 -5 -7 0 2 11 9
11 10 16 3 11 -8 -4 -13 -2 -13 4 0 17 -26 40 -35 32 -5 -4 -5 1 -2 11 4 11 1
17 -8 17 -8 0 -15 6 -15 14 0 8 -5 18 -12 22 -7 5 -8 2 -3 -7 7 -12 6 -12 -6
-1 -8 7 -14 18 -14 25 -1 7 -6 11 -13 10 -6 -2 -9 4 -6 11 3 9 -5 20 -23 30
-15 8 -21 15 -13 16 13 0 13 1 0 10 -9 6 -17 5 -23 -3 -5 -7 -6 -3 -2 11 4 13
2 22 -5 22 -6 0 -8 5 -4 13 5 8 2 7 -9 -2 -15 -12 -17 -12 -11 4 5 13 4 16 -4
11 -16 -10 -15 6 1 23 10 11 9 12 -3 5 -18 -10 -44 -15 -36 -7 3 4 0 13 -7 22
-10 14 -10 14 5 3 12 -10 18 -10 24 -1 4 7 3 9 -4 5 -6 -3 -17 3 -25 15 -11
15 -16 17 -20 7 -3 -7 -6 -3 -6 10 -1 19 -10 26 -32 24 -3 -1 -5 10 -3 24 1
13 -2 22 -7 18 -5 -3 -22 9 -37 26 -16 17 -35 29 -43 27 -8 -2 -11 -2 -7 0 9
6 -13 53 -25 53 -5 0 -3 -8 4 -17 11 -15 10 -14 -9 1 -12 11 -22 28 -22 39 0
12 -5 17 -14 14 -11 -4 -13 0 -11 15 3 11 2 18 -1 15 -7 -7 -100 85 -97 95 2
4 -4 5 -13 1 -9 -3 -14 0 -12 8 2 8 -2 13 -9 12 -8 -2 -10 4 -6 14 4 9 2 14
-3 11 -12 -8 -35 17 -26 28 4 4 2 5 -3 1 -11 -6 -39 11 -46 28 -2 6 -9 9 -16
9 -6 -1 -9 4 -7 11 3 6 -3 18 -13 26 -16 13 -17 12 -5 -3 9 -11 10 -18 2 -23
-6 -4 -10 -3 -9 2 1 4 -2 19 -6 31 -6 18 -10 20 -16 10 -7 -11 -9 -11 -9 1 0
14 -90 111 -103 111 -4 0 -18 11 -31 25 -13 13 -27 21 -32 17 -5 -4 -6 -3 -2
2 11 13 -15 36 -29 24 -8 -7 -10 -3 -6 14 4 19 3 20 -7 8 -10 -13 -11 -11 -7
7 3 15 1 20 -9 16 -8 -3 -14 0 -14 5 0 6 -9 14 -21 17 -11 4 -28 19 -37 34
-11 17 -25 26 -39 25 -12 -1 -20 3 -17 7 7 13 -18 37 -34 31 -7 -2 -10 2 -6
11 3 8 0 18 -7 23 -8 5 -10 3 -5 -7 4 -8 0 -5 -8 5 -9 11 -16 23 -16 28 0 4
-7 5 -15 2 -10 -4 -15 0 -15 11 0 15 -2 16 -17 4 -11 -10 -14 -10 -9 -1 4 7 2
12 -4 12 -6 0 -8 5 -5 10 3 6 1 10 -5 10 -6 0 -8 5 -4 13 6 9 5 9 -7 0 -12
-10 -18 -8 -29 7 -8 11 -22 20 -31 20 -9 0 -20 7 -23 16 -6 15 -4 15 11 3 16
-13 17 -12 4 4 -7 9 -21 17 -31 17 -10 0 -36 18 -58 39 -25 24 -43 35 -46 28
-2 -7 -5 -4 -5 6 -1 15 -12 22 -34 18 -5 -1 -6 3 -2 9 3 5 -1 10 -10 10 -8 0
-18 6 -21 14 -3 8 -17 17 -31 21 -20 5 -23 8 -13 20 15 17 6 19 -20 5 -16 -9
-18 -8 -13 6 4 12 3 15 -5 10 -7 -4 -12 -1 -12 8 0 9 -8 13 -25 11 -22 -2 -23
0 -13 13 10 13 10 14 1 8 -7 -4 -13 -2 -13 3 0 6 -7 11 -15 11 -8 0 -15 6 -15
13 0 9 -2 9 -9 -1 -7 -11 -9 -10 -15 3 -3 9 -11 13 -17 9 -7 -4 -10 -3 -7 2 3
5 0 15 -8 22 -11 10 -14 10 -14 0 0 -8 -5 -6 -11 5 -6 9 -14 15 -20 12 -5 -4
-6 2 -2 12 6 16 5 17 -13 3 -10 -8 -16 -11 -12 -6 8 9 -33 46 -52 46 -6 0 -8
4 -5 10 3 5 0 7 -8 4 -8 -3 -18 0 -22 5 -3 6 -11 8 -17 5 -7 -4 -8 -2 -4 4 6
11 -12 17 -36 13 -5 0 -7 2 -7 7 4 26 -1 34 -16 22 -13 -11 -14 -10 -10 3 4 8
1 18 -6 23 -8 4 -10 3 -5 -4 4 -7 1 -12 -8 -12 -9 0 -15 5 -13 12 1 6 -8 17
-20 23 -13 7 -20 15 -15 20 4 5 1 5 -6 1 -8 -5 -19 -1 -28 10 -9 11 -13 13 -9
7 4 -9 1 -11 -9 -7 -9 3 -14 10 -11 14 3 4 -2 11 -11 14 -8 3 -13 2 -10 -2 3
-5 -1 -9 -9 -9 -8 0 -12 4 -9 9 3 4 0 8 -6 8 -6 0 -8 5 -5 10 3 6 1 10 -4 10
-6 0 -11 -6 -11 -12 0 -7 -5 -5 -11 5 -6 9 -14 15 -20 12 -5 -4 -9 1 -9 10 0
9 -4 13 -10 10 -5 -3 -10 -1 -10 5 0 6 -4 8 -10 5 -5 -3 -10 1 -10 9 0 19 -11
20 -29 4 -7 -7 -12 -8 -11 -3 2 6 2 17 1 25 -1 13 -2 13 -11 0 -6 -10 -10 -11
-10 -2 0 6 -7 12 -16 12 -8 0 -13 4 -10 9 4 5 -3 7 -14 4 -15 -4 -20 0 -20 13
0 13 -3 15 -8 7 -6 -9 -12 -7 -22 7 -10 14 -17 17 -27 8 -7 -6 -14 -8 -14 -4
-1 3 -3 11 -4 16 -1 6 -3 13 -4 18 -1 4 -6 0 -11 -8 -8 -12 -10 -12 -10 5 0
17 -2 17 -10 5 -8 -13 -10 -12 -10 3 0 12 -8 17 -26 17 -14 0 -23 4 -20 9 3 5
-1 12 -10 15 -10 4 -13 2 -9 -7 4 -6 0 -4 -8 6 -11 14 -16 15 -20 5 -4 -9 -6
-8 -6 4 -1 12 -7 15 -23 10 -21 -5 -22 -4 -8 13 10 12 10 16 2 11 -7 -4 -19
-2 -27 4 -8 7 -22 9 -31 6 -14 -5 -15 -4 -5 8 9 11 9 14 -1 13 -37 -1 -59 4
-53 13 4 6 -5 10 -20 10 -14 0 -24 4 -21 9 5 7 -15 13 -81 23 -6 1 -9 7 -6 15
3 7 1 13 -5 13 -6 0 -13 -6 -15 -12 -4 -10 -6 -10 -6 0 -1 8 -6 10 -13 6 -8
-5 -8 -1 2 12 8 10 11 16 6 12 -5 -4 -26 2 -47 13 -22 11 -39 16 -39 12 0 -4
-5 -2 -12 5 -8 8 -16 8 -32 0 -20 -11 -20 -10 -6 7 9 11 10 16 2 11 -7 -4 -19
0 -28 9 -13 12 -19 13 -30 4 -12 -10 -13 -9 -8 6 5 12 4 16 -3 12 -6 -4 -17
-1 -25 6 -15 15 -20 17 -49 17 -12 0 -17 4 -13 11 4 7 -2 7 -17 -1 -13 -7 -21
-9 -17 -5 4 4 1 13 -5 20 -9 10 -15 10 -26 1 -12 -8 -13 -8 -7 2 5 8 0 12 -13
12 -12 0 -21 5 -21 10 0 6 -12 10 -26 10 -17 0 -23 4 -18 13 4 6 4 9 -1 5 -4
-4 -17 -3 -29 3 -20 10 -20 10 -2 -5 11 -9 15 -16 8 -16 -7 0 -17 9 -24 20 -7
11 -16 20 -21 20 -4 0 -6 -4 -3 -8 3 -5 -1 -9 -9 -9 -8 0 -13 3 -11 6 1 3 -6
15 -17 25 -19 18 -20 18 -14 1 6 -15 5 -16 -7 -6 -8 7 -20 10 -25 7 -5 -4 -13
-1 -17 5 -5 8 -3 9 6 4 9 -5 11 -4 6 4 -6 9 -11 9 -22 0 -10 -8 -14 -8 -14 0
0 6 -7 11 -15 11 -8 0 -15 6 -15 13 0 8 -4 7 -10 -3 -9 -13 -10 -13 -10 0 0
12 -2 12 -9 2 -6 -11 -10 -10 -15 3 -5 14 -9 15 -20 6 -11 -9 -16 -9 -22 0 -4
8 -3 9 4 5 7 -4 12 -2 12 5 0 7 -11 10 -30 7 -21 -3 -30 0 -30 9 0 9 -5 11
-12 6 -19 -11 -39 -13 -32 -2 3 5 10 6 16 3 6 -4 8 -2 4 4 -3 6 -18 9 -32 6
-18 -3 -23 -1 -18 7 4 7 2 10 -7 7 -8 -3 -20 2 -27 11 -8 9 -11 10 -7 4 3 -7
1 -13 -4 -13 -6 0 -11 6 -11 13 0 9 -3 8 -9 -2 -6 -9 -10 -10 -12 -2 -3 7 -14
13 -27 14 -12 0 -22 5 -22 8 0 4 -15 9 -32 11 -23 2 -32 8 -30 18 2 11 -1 10
-12 -3 -8 -10 -16 -13 -17 -8 -2 6 -16 12 -31 13 -16 1 -28 6 -28 11 0 5 -6 4
-14 -2 -10 -9 -15 -8 -19 4 -4 8 -13 12 -22 9 -9 -4 -15 -1 -15 7 0 11 -3 11
-10 -1 -8 -12 -10 -12 -10 -1 0 11 -3 11 -16 1 -12 -11 -15 -11 -12 0 2 7 -3
15 -11 18 -10 3 -11 0 -5 -9 6 -12 5 -12 -8 -1 -8 7 -24 10 -34 6 -16 -5 -17
-4 -4 6 13 10 11 11 -7 7 -13 -3 -23 0 -23 5 0 6 -6 5 -15 -2 -13 -11 -14 -10
-8 6 6 16 5 17 -9 6 -11 -9 -18 -10 -23 -2 -3 6 -11 8 -16 5 -5 -4 -9 -2 -9 3
0 5 -16 8 -34 7 -19 -1 -32 3 -29 8 3 5 -4 6 -17 2 -15 -5 -20 -4 -16 4 9 14
0 14 -24 1 -15 -8 -18 -7 -14 3 3 8 -1 14 -8 14 -7 0 -24 3 -38 7 -19 6 -21 5
-10 -3 9 -7 10 -11 3 -11 -6 0 -15 5 -18 11 -4 6 -13 8 -21 5 -8 -3 -14 -1
-14 4 0 6 -5 10 -11 10 -5 0 -7 -6 -3 -12 6 -9 3 -9 -9 0 -9 8 -22 10 -28 6
-8 -4 -9 -3 -5 4 4 7 1 12 -9 12 -10 0 -13 -5 -9 -12 4 -7 -2 -5 -13 5 -23 20
-37 23 -27 5 4 -7 -1 -5 -12 4 -16 14 -23 15 -34 5 -10 -9 -11 -9 -6 1 4 7 1
12 -8 12 -8 0 -17 -6 -19 -12 -4 -9 -6 -8 -6 2 -1 9 -12 17 -27 18 -17 1 -23
-2 -19 -11 4 -6 0 -4 -8 5 -8 10 -17 15 -20 11 -4 -3 -13 0 -22 7 -12 10 -18
10 -32 -1 -11 -10 -14 -10 -9 -1 4 6 3 12 -1 12 -5 0 -15 -6 -22 -12 -9 -8
-11 -8 -8 -2 4 7 0 15 -9 18 -10 4 -13 2 -8 -7 6 -9 5 -9 -7 0 -8 6 -27 10
-41 9 -16 -2 -25 1 -22 6 4 6 -8 8 -30 5 -20 -3 -36 -1 -36 5 0 5 -4 6 -10 3
-5 -3 -18 -1 -29 5 -16 8 -22 6 -30 -7 -10 -17 -10 -17 -11 0 0 20 -4 21 -33
5 -19 -9 -20 -9 -10 3 9 12 4 13 -34 10 -36 -2 -44 0 -37 10 6 12 5 12 -9 0
-9 -7 -17 -9 -17 -4 0 5 -7 10 -15 10 -8 0 -12 -4 -9 -9 3 -4 0 -8 -5 -8 -6 0
-11 5 -11 11 0 7 -10 9 -24 5 -30 -7 -58 2 -49 18 3 6 -4 2 -16 -9 -15 -13
-24 -16 -29 -8 -4 6 -22 10 -39 8 -20 -1 -30 1 -26 8 3 5 0 7 -8 5 -8 -3 -13
-11 -11 -17 1 -7 -2 -10 -8 -6 -6 3 -8 11 -5 16 4 5 1 9 -4 9 -6 0 -11 -6 -11
-12 0 -10 -3 -9 -9 1 -5 8 -14 10 -21 6 -8 -5 -11 -4 -7 1 3 6 -3 11 -14 11
-10 1 -19 -3 -19 -8 0 -6 5 -7 10 -4 6 3 10 1 10 -4 0 -16 -11 -14 -32 6 -14
13 -18 13 -18 2 0 -11 -2 -11 -10 1 -8 13 -10 12 -10 -4 0 -19 0 -19 -13 -1
-8 10 -19 15 -25 11 -7 -4 -12 -2 -12 3 0 6 -5 11 -11 11 -5 0 -8 -4 -5 -8 2
-4 0 -14 -6 -22 -8 -12 -9 -12 -4 2 6 20 -9 34 -20 17 -5 -8 -9 -7 -14 2 -7
10 -11 10 -24 0 -11 -9 -16 -10 -16 -2 0 6 -5 11 -11 11 -5 0 -7 -6 -3 -12 5
-8 0 -7 -11 2 -10 8 -16 10 -12 3 4 -6 3 -15 -3 -18 -6 -4 -9 -1 -8 5 2 7 -5
14 -15 15 -14 3 -17 -1 -12 -13 4 -11 -3 -8 -22 8 -15 14 -22 18 -16 10 10
-13 8 -16 -8 -16 -10 0 -19 4 -19 8 0 4 -4 8 -10 8 -5 0 -7 -8 -4 -17 5 -17 5
-17 -6 0 -9 13 -15 15 -31 7 -14 -8 -19 -7 -19 1 0 9 -3 9 -14 0 -10 -9 -15
-8 -19 4 -5 11 -12 13 -30 6 -14 -6 -30 -5 -43 2 -16 9 -17 8 -7 -5 11 -12 9
-14 -7 -13 -11 1 -23 5 -27 10 -5 4 -2 5 6 0 10 -6 12 -4 7 4 -6 9 -11 9 -22
0 -11 -9 -14 -8 -14 2 0 8 -6 6 -16 -7 -13 -16 -15 -16 -10 -2 3 10 0 20 -6
24 -7 4 -8 3 -4 -4z m3346 -708 c0 -2 -9 0 -20 6 -11 6 -20 13 -20 16 0 2 9 0
20 -6 11 -6 20 -13 20 -16z m651 -337 c-10 -9 -11 -8 -5 6 3 10 9 15 12 12 3
-3 0 -11 -7 -18z m-7929 -59 c-7 -7 -12 -8 -12 -2 0 14 12 26 19 19 2 -3 -1
-11 -7 -17z m9402 -973 c3 -8 1 -15 -4 -15 -6 0 -10 7 -10 15 0 8 2 15 4 15 2
0 6 -7 10 -15z m-11194 -459 c0 -2 -7 -7 -16 -10 -8 -3 -12 -2 -9 4 6 10 25
14 25 6z m11735 -75 c3 -5 2 -12 -3 -15 -5 -3 -9 1 -9 9 0 17 3 19 12 6z
m-11854 -44 c-10 -9 -11 -8 -5 6 3 10 9 15 12 12 3 -3 0 -11 -7 -18z m-601
-741 c0 -2 -7 -7 -16 -10 -8 -3 -12 -2 -9 4 6 10 25 14 25 6z m-905 -1626 c-3
-5 -11 -10 -16 -10 -6 0 -7 5 -4 10 3 6 11 10 16 10 6 0 7 -4 4 -10z m15158
-735 c-3 -9 -8 -14 -10 -11 -3 3 -2 9 2 15 9 16 15 13 8 -4z m97 -325 c0 -5
-2 -10 -4 -10 -3 0 -8 5 -11 10 -3 6 -1 10 4 10 6 0 11 -4 11 -10z m-11083
-1126 c-3 -3 -12 -4 -19 -1 -8 3 -5 6 6 6 11 1 17 -2 13 -5z m-160 -30 c-3 -3
-12 -4 -19 -1 -8 3 -5 6 6 6 11 1 17 -2 13 -5z m-92 -14 c-11 -5 -27 -9 -35
-9 -9 0 -8 4 5 9 11 5 27 9 35 9 9 0 8 -4 -5 -9z m-59 -9 c-3 -5 -19 -11 -36
-13 -36 -5 -27 8 10 15 14 2 26 5 28 6 2 0 1 -3 -2 -8z m-76 -15 c0 -2 -7 -7
-16 -10 -8 -3 -12 -2 -9 4 6 10 25 14 25 6z m-60 -16 c-14 -4 -34 -8 -45 -8
-16 0 -15 2 5 8 14 4 34 8 45 8 16 0 15 -2 -5 -8z m-77 -17 c-7 -2 -19 -2 -25
0 -7 3 -2 5 12 5 14 0 19 -2 13 -5z m-46 -9 c-3 -3 -12 -4 -19 -1 -8 3 -5 6 6
6 11 1 17 -2 13 -5z m-44 -11 c-7 -2 -19 -2 -25 0 -7 3 -2 5 12 5 14 0 19 -2
13 -5z m-46 -9 c-3 -3 -12 -4 -19 -1 -8 3 -5 6 6 6 11 1 17 -2 13 -5z m-40
-10 c-3 -3 -12 -4 -19 -1 -8 3 -5 6 6 6 11 1 17 -2 13 -5z m-40 -10 c-3 -3
-12 -4 -19 -1 -8 3 -5 6 6 6 11 1 17 -2 13 -5z m-44 -11 c-7 -2 -19 -2 -25 0
-7 3 -2 5 12 5 14 0 19 -2 13 -5z m-46 -9 c-3 -3 -12 -4 -19 -1 -8 3 -5 6 6 6
11 1 17 -2 13 -5z m-40 -10 c-3 -3 -12 -4 -19 -1 -8 3 -5 6 6 6 11 1 17 -2 13
-5z m7748 -722 c-3 -3 -11 0 -18 7 -9 10 -8 11 6 5 10 -3 15 -9 12 -12z m85
-32 c8 -5 11 -10 5 -10 -5 0 -17 5 -25 10 -8 5 -10 10 -5 10 6 0 17 -5 25 -10z
m45 -28 c-3 -3 -11 0 -18 7 -9 10 -8 11 6 5 10 -3 15 -9 12 -12z m121 -60 c-5
-4 -106 46 -106 53 0 3 25 -7 55 -22 30 -15 53 -29 51 -31z m171 -88 c-4 -4
-157 76 -157 82 0 3 36 -14 80 -37 45 -23 79 -43 77 -45z m4020 1 c0 -8 -4
-12 -9 -9 -5 3 -6 10 -3 15 9 13 12 11 12 -6z m-3967 -31 c0 -2 -9 0 -20 6
-11 6 -20 13 -20 16 0 2 9 0 20 -6 11 -6 20 -13 20 -16z m55 -24 c39 -26 25
-26 -17 0 -18 11 -28 20 -23 20 6 0 24 -9 40 -20z m3910 -230 c3 -5 1 -10 -4
-10 -6 0 -11 5 -11 10 0 6 2 10 4 10 3 0 8 -4 11 -10z m-9505 -1090 c0 -5 -5
-10 -11 -10 -5 0 -7 5 -4 10 3 6 8 10 11 10 2 0 4 -4 4 -10z m127 4 c-3 -3
-12 -4 -19 -1 -8 3 -5 6 6 6 11 1 17 -2 13 -5z m371 -1 c-64 -2 -172 -2 -240
0 -68 1 -15 3 117 3 132 0 187 -2 123 -3z m152 1 c0 -8 -19 -13 -24 -6 -3 5 1
9 9 9 8 0 15 -2 15 -3z m45 -4 c-3 -5 -14 -10 -23 -9 -14 0 -13 2 3 9 27 11
27 11 20 0z m62 -6 c-3 -3 -12 -4 -19 -1 -8 3 -5 6 6 6 11 1 17 -2 13 -5z
m-3857 -511 c-23 -27 -53 -68 -66 -93 -12 -25 -23 -40 -24 -35 0 21 43 92 83
133 55 56 59 53 7 -5z m-3133 -218 c0 -8 -4 -12 -9 -9 -5 3 -6 10 -3 15 9 13
12 11 12 -6z m68 -185 c-3 -5 -12 -10 -18 -10 -7 0 -6 4 3 10 19 12 23 12 15
0z m5900 -90 c-3 -5 -14 -10 -23 -9 -14 0 -13 2 3 9 27 11 27 11 20 0z m65 0
c0 -5 -4 -10 -10 -10 -5 0 -10 5 -10 10 0 6 5 10 10 10 6 0 10 -4 10 -10z m77
4 c-3 -3 -12 -4 -19 -1 -8 3 -5 6 6 6 11 1 17 -2 13 -5z m116 -1 c-7 -2 -19
-2 -25 0 -7 3 -2 5 12 5 14 0 19 -2 13 -5z m134 1 c-3 -3 -12 -4 -19 -1 -8 3
-5 6 6 6 11 1 17 -2 13 -5z m-613 -12 c3 -5 -1 -9 -9 -9 -8 0 -12 4 -9 9 3 4
7 8 9 8 2 0 6 -4 9 -8z m53 2 c-3 -3 -12 -4 -19 -1 -8 3 -5 6 6 6 11 1 17 -2
13 -5z m40 0 c-3 -3 -12 -4 -19 -1 -8 3 -5 6 6 6 11 1 17 -2 13 -5z m71 -1
c-10 -2 -28 -2 -40 0 -13 2 -5 4 17 4 22 1 32 -1 23 -4z m-2772 -175 c16 -18
48 -48 70 -66 l39 -33 -47 30 c-57 38 -113 102 -139 160 -28 64 -23 64 14 -1
17 -31 46 -72 63 -90z m12079 -67 c3 -5 2 -12 -3 -15 -5 -3 -9 1 -9 9 0 17 3
19 12 6z m-14308 -1436 c0 -8 -4 -12 -9 -9 -5 3 -6 10 -3 15 9 13 12 11 12 -6z
m218 -335 c3 -5 2 -10 -4 -10 -5 0 -13 5 -16 10 -3 6 -2 10 4 10 5 0 13 -4 16
-10z m100 -148 c-3 -3 -11 0 -18 7 -9 10 -8 11 6 5 10 -3 15 -9 12 -12z
m12935 -16 c0 -2 -6 -9 -14 -15 -11 -9 -16 -9 -22 0 -4 8 -3 9 4 5 7 -4 12 -2
12 3 0 6 5 11 10 11 6 0 10 -2 10 -4z m-80 -100 c0 -2 -8 -10 -17 -17 -16 -13
-17 -12 -4 4 13 16 21 21 21 13z m-89 -113 c-12 -20 -14 -14 -5 12 4 9 9 14
11 11 3 -2 0 -13 -6 -23z m-12261 -379 c0 -8 -5 -12 -10 -9 -6 4 -8 11 -5 16
9 14 15 11 15 -7z m70 -70 c0 -2 -9 0 -20 6 -11 6 -20 13 -20 16 0 2 9 0 20
-6 11 -6 20 -13 20 -16z m10630 -1048 c0 -3 -4 -8 -10 -11 -5 -3 -10 -1 -10 4
0 6 5 11 10 11 6 0 10 -2 10 -4z m-424 -292 c-4 -9 -9 -15 -11 -12 -3 3 -3 13
1 22 4 9 9 15 11 12 3 -3 3 -13 -1 -22z m-337 -197 c-2 -1 -13 -10 -25 -20
-17 -14 -21 -14 -21 -2 0 8 4 12 8 9 4 -2 10 0 14 6 3 5 11 10 17 10 6 0 9 -1
7 -3z m-779 -391 c0 -3 -4 -8 -10 -11 -5 -3 -10 -1 -10 4 0 6 5 11 10 11 6 0
10 -2 10 -4z m-255 -116 c-3 -5 -10 -10 -16 -10 -5 0 -9 5 -9 10 0 6 7 10 16
10 8 0 12 -4 9 -10z m-5745 -61 c0 -6 -4 -7 -10 -4 -5 3 -10 11 -10 16 0 6 5
7 10 4 6 -3 10 -11 10 -16z m5517 -21 c-3 -8 -6 -5 -6 6 -1 11 2 17 5 13 3 -3
4 -12 1 -19z m-5224 -63 c-3 -9 -8 -14 -10 -11 -3 3 -2 9 2 15 9 16 15 13 8
-4z m91 -30 c-4 -8 -11 -12 -16 -9 -6 4 -5 10 3 15 19 12 19 11 13 -6z m920
-227 c-3 -4 -9 -8 -15 -8 -5 0 -9 4 -9 8 0 5 7 9 15 9 8 0 12 -4 9 -9z m502
-71 c8 3 14 1 14 -5 0 -13 -27 -9 -40 6 -7 8 -7 9 1 3 6 -5 18 -7 25 -4z m848
-68 c-3 -5 -10 -7 -15 -3 -5 3 -7 10 -3 15 3 5 10 7 15 3 5 -3 7 -10 3 -15z
m526 11 c0 -5 -5 -10 -11 -10 -5 0 -7 5 -4 10 3 6 8 10 11 10 2 0 4 -4 4 -10z"/>
<path d="M6511 16014 c0 -11 3 -14 6 -6 3 7 2 16 -1 19 -3 4 -6 -2 -5 -13z"/>
<path d="M1950 13299 c0 -5 5 -7 10 -4 6 3 10 8 10 11 0 2 -4 4 -10 4 -5 0
-10 -5 -10 -11z"/>
<path d="M830 11579 c0 -5 5 -7 10 -4 6 3 10 8 10 11 0 2 -4 4 -10 4 -5 0 -10
-5 -10 -11z"/>
<path d="M2276 2547 c3 -10 9 -15 12 -12 3 3 0 11 -7 18 -10 9 -11 8 -5 -6z"/>
<path d="M2736 2102 c-3 -5 1 -9 9 -9 8 0 12 4 9 9 -3 4 -7 8 -9 8 -2 0 -6 -4
-9 -8z"/>
<path d="M13425 2040 c-3 -6 1 -7 9 -4 18 7 21 14 7 14 -6 0 -13 -4 -16 -10z"/>
<path d="M2915 1930 c-3 -5 -1 -10 4 -10 6 0 11 5 11 10 0 6 -2 10 -4 10 -3 0
-8 -4 -11 -10z"/>
<path d="M3653 1368 c-2 -16 1 -18 10 -9 7 7 8 14 1 21 -6 6 -10 2 -11 -12z"/>
<path d="M3713 1325 c0 -8 4 -12 9 -9 5 3 6 10 3 15 -9 13 -12 11 -12 -6z"/>
<path d="M12155 1129 c-4 -6 -4 -13 -1 -16 3 -4 6 -1 6 6 0 7 5 9 12 5 7 -4 8
-3 4 4 -9 15 -13 15 -21 1z"/>
<path d="M4146 1065 c4 -8 11 -15 16 -15 6 0 5 6 -2 15 -7 8 -14 15 -16 15 -2
0 -1 -7 2 -15z"/>
<path d="M4236 1002 c-3 -4 4 -9 15 -9 23 -2 25 3 4 10 -8 4 -16 3 -19 -1z"/>
<path d="M11705 890 c-3 -5 -1 -10 4 -10 6 0 11 5 11 10 0 6 -2 10 -4 10 -3 0
-8 -4 -11 -10z"/>
<path d="M4500 871 c0 -6 4 -13 10 -16 6 -3 7 1 4 9 -7 18 -14 21 -14 7z"/>
<path d="M11695 860 c3 -5 8 -10 11 -10 2 0 4 5 4 10 0 6 -5 10 -11 10 -5 0
-7 -4 -4 -10z"/>
<path d="M11425 749 c-4 -6 -4 -13 -1 -16 3 -4 6 -1 6 6 0 7 5 9 12 5 7 -4 8
-3 4 4 -9 15 -13 15 -21 1z"/>
<path d="M4876 692 c-3 -5 1 -9 9 -9 8 0 12 4 9 9 -3 4 -7 8 -9 8 -2 0 -6 -4
-9 -8z"/>
<path d="M11246 672 c-3 -5 1 -9 9 -9 8 0 12 4 9 9 -3 4 -7 8 -9 8 -2 0 -6 -4
-9 -8z"/>
<path d="M5141 583 c7 -12 15 -20 18 -17 3 2 -3 12 -13 22 -17 16 -18 16 -5
-5z"/>
<path d="M10995 560 c-3 -5 -1 -10 4 -10 6 0 11 5 11 10 0 6 -2 10 -4 10 -3 0
-8 -4 -11 -10z"/>
<path d="M5710 391 c0 -6 4 -13 10 -16 6 -3 7 1 4 9 -7 18 -14 21 -14 7z"/>
<path d="M5996 322 c-3 -5 1 -9 9 -9 8 0 12 4 9 9 -3 4 -7 8 -9 8 -2 0 -6 -4
-9 -8z"/>
<path d="M6055 309 c-10 -15 3 -25 16 -12 7 7 7 13 1 17 -6 3 -14 1 -17 -5z"/>
<path d="M10185 309 c-4 -6 -5 -12 -2 -15 2 -3 7 2 10 11 7 17 1 20 -8 4z"/>
<path d="M6430 210 c-12 -7 -10 -9 7 -7 12 0 19 5 17 9 -6 10 -6 10 -24 -2z"/>
<path d="M9633 175 c0 -8 4 -12 9 -9 5 3 6 10 3 15 -9 13 -12 11 -12 -6z"/>
<path d="M6655 170 c-3 -5 -1 -10 4 -10 6 0 11 5 11 10 0 6 -2 10 -4 10 -3 0
-8 -4 -11 -10z"/>
<path d="M9574 168 c-3 -5 -3 -12 0 -15 3 -4 6 -1 6 5 0 6 10 9 21 7 12 -3 19
-1 15 2 -11 11 -35 12 -42 1z"/>
<path d="M6695 160 c-3 -5 -1 -10 4 -10 6 0 11 5 11 10 0 6 -2 10 -4 10 -3 0
-8 -4 -11 -10z"/>
<path d="M6977 109 c7 -7 15 -10 18 -7 3 3 -2 9 -12 12 -14 6 -15 5 -6 -5z"/>
<path d="M9210 99 c0 -5 5 -7 10 -4 6 3 10 8 10 11 0 2 -4 4 -10 4 -5 0 -10
-5 -10 -11z"/>
<path d="M7274 89 c1 -7 9 -13 18 -15 11 -1 15 3 11 13 -4 11 -8 12 -13 3 -6
-9 -9 -9 -13 -1 -4 8 -5 8 -3 0z"/>
<path d="M7596 53 c-6 -14 -5 -15 5 -6 7 7 10 15 7 18 -3 3 -9 -2 -12 -12z"/>
<path d="M7775 50 c-3 -5 -1 -10 4 -10 6 0 11 5 11 10 0 6 -2 10 -4 10 -3 0
-8 -4 -11 -10z"/>
</g>
</svg>
